<svg width="62" height="62" viewBox="0 0 62 62" fill="none" xmlns="http://www.w3.org/2000/svg">
<path d="M32.906 32.9063C32.906 31.8519 32.0517 31 30.9997 31C29.9473 31 29.0935 31.8524 29.0935 32.9063V34.8125C29.0935 35.8669 29.9478 36.7188 30.9997 36.7188C32.0522 36.7188 32.906 35.8664 32.906 34.8125V32.9063Z" fill="#1F1F1F"/>
<path d="M34.8726 47.4121C40.8932 42.3962 44.3457 35.0242 44.3457 27.1858C44.3457 26.3642 43.8216 25.6357 43.0415 25.3784L38.5251 23.8722C38.571 23.71 38.6263 23.5501 38.6263 23.3727V19.5597C38.6263 15.3541 35.2059 11.9336 31.0002 11.9336C26.7945 11.9336 23.3741 15.354 23.3741 19.5597V23.3727C23.3741 23.5501 23.4294 23.71 23.4753 23.8722L18.9589 25.3784C18.1789 25.6376 17.6543 26.3642 17.6543 27.1858C17.6543 35.0234 21.107 42.3964 27.1275 47.4121L29.7792 49.6216C30.1326 49.9172 30.5654 50.0639 31.0001 50.0639C31.4348 50.0639 31.8676 49.9172 32.2205 49.6235L34.8726 47.4121ZM27.1873 19.5606C27.1873 17.4575 28.8973 15.7476 31.0003 15.7476C33.1034 15.7476 34.8133 17.4575 34.8133 19.5606V22.6357L31.6029 21.5662C31.2103 21.4366 30.7888 21.4366 30.3962 21.5662L27.1872 22.6357L27.1873 19.5606ZM29.5705 44.4817C24.7716 40.4836 21.8796 34.7355 21.5097 28.5469L31.0005 25.3824L40.4931 28.5474C40.1232 34.7359 37.2311 40.486 32.4324 44.4821L31.0006 45.6751L29.5705 44.4817Z" fill="#1F1F1F"/>
<path d="M55.7842 15.7476C56.8367 15.7476 57.6905 14.8952 57.6905 13.8413V6.21486C57.6905 5.1605 56.8362 4.3086 55.7842 4.3086H48.1581C47.1056 4.3086 46.2518 5.161 46.2518 6.21486V8.12112L15.7471 8.12159V6.21485C15.7471 5.16049 14.8928 4.30859 13.8409 4.30859H6.21438C5.16238 4.30859 4.30812 5.16099 4.30812 6.21485V13.841C4.30812 14.8953 5.1624 15.7472 6.21438 15.7472H8.12064V46.252H6.21438C5.1619 46.252 4.30812 47.1043 4.30812 48.1582V55.7843C4.30812 56.8387 5.1624 57.6906 6.21438 57.6906H13.8405C14.893 57.6906 15.7468 56.8382 15.7468 55.7843V53.8781H46.2515V55.7843C46.2515 56.8387 47.1058 57.6906 48.1577 57.6906H55.7839C56.8363 57.6906 57.6901 56.8382 57.6901 55.7843V48.1582C57.6901 47.1039 56.8358 46.252 55.7839 46.252H53.8776V15.7484L55.7842 15.7476ZM50.0645 8.12148H53.8775V11.9345H50.0645V8.12148ZM8.12124 8.12148H11.9342V11.9345H8.12124V8.12148ZM11.9342 53.878H8.12124V50.065H11.9342V53.878ZM53.8775 53.878H50.0645V50.065H53.8775V53.878ZM50.0645 46.2518H48.1582C47.1057 46.2518 46.252 47.1042 46.252 48.1581V50.0644H31.0002L15.7485 50.0648V48.1586C15.7485 47.1042 14.8942 46.2523 13.8422 46.2523L11.9355 46.2518V15.7483H13.8417C14.8942 15.7483 15.748 14.8959 15.748 13.8421L15.7484 11.9353H46.2532V13.8416C46.2532 14.896 47.1074 15.7478 48.1594 15.7478H50.0657L50.0645 46.2518Z" fill="#1F1F1F"/>
</svg>
