<svg width="62" height="62" viewBox="0 0 62 62" fill="none" xmlns="http://www.w3.org/2000/svg">
<path d="M51.9323 56.6008V50.2414H49.0766V20.3277H40.1673V4.04297H13.6974V50.2414H10.067V56.6008L5.78574 56.6003V57.956H56.214V56.6003H51.9318L51.9323 56.6008ZM40.1673 21.6834H47.721V50.241H40.1673V21.6834ZM15.0536 5.39873H38.8122V50.241H35.0399L35.0404 10.6603H18.8259V50.2422H15.0541L15.0536 5.39873ZM27.6099 45.844V42.803H33.6834V45.844H27.6099ZM33.6834 47.1997V50.2407H27.6099V47.1997H33.6834ZM27.6099 41.4473V38.4062H33.6834V41.4473H27.6099ZM27.6099 37.0509V34.0089H33.6834V37.05H27.6099V37.0509ZM27.6099 32.6533V29.6023H33.6834V32.6533H27.6099ZM27.6099 28.2466V25.2065H33.6834V28.2466H27.6099ZM27.6099 23.8508V20.8092H33.6834V23.8508H27.6099ZM27.6099 19.4531V16.4131H33.6834V19.4531H27.6099ZM27.6099 15.0568V12.0158H33.6834V15.0568H27.6099ZM20.181 45.8437V42.8027H26.2541V45.8437H20.181ZM26.2541 47.1993V50.2404H20.181V47.1993H26.2541ZM20.181 41.4469V38.4059H26.2541V41.4469H20.181ZM20.181 37.0506V34.0086H26.2541V37.0496H20.181V37.0506ZM20.181 32.6529V29.602H26.2541V32.6529H20.181ZM20.181 28.2462V25.2062H26.2541V28.2462H20.181ZM20.181 23.8504V20.8089H26.2541V23.8504H20.181ZM20.181 19.4528V16.4127H26.2541V19.4528H20.181ZM20.181 15.0564V12.0154H26.2541V15.0564H20.181ZM50.5767 56.6001H11.4235V51.597H50.5767V56.6001Z" fill="black" stroke="black" stroke-width="0.121094"/>
</svg>
