<svg width="22" height="22" viewBox="0 0 22 22" fill="none" xmlns="http://www.w3.org/2000/svg">
<path d="M10.1292 13.7042L8.43334 15.4C8.07584 15.7575 7.5075 15.7575 7.14084 15.4092C7.04 15.3083 6.93917 15.2167 6.83834 15.1158C5.89417 14.1625 5.04167 13.1633 4.28084 12.1183C3.52917 11.0733 2.92417 10.0283 2.48417 8.9925C2.05334 7.9475 1.83334 6.94833 1.83334 5.995C1.83334 5.37166 1.94334 4.77583 2.16334 4.22583C2.38334 3.66666 2.73167 3.15333 3.2175 2.69499C3.80417 2.11749 4.44584 1.83333 5.12417 1.83333C5.38084 1.83333 5.6375 1.88833 5.86667 1.99833C6.105 2.10833 6.31584 2.27333 6.48084 2.51166L8.6075 5.50916C8.7725 5.73833 8.89167 5.94916 8.97417 6.15083C9.05667 6.34333 9.1025 6.53583 9.1025 6.71C9.1025 6.93 9.03834 7.14999 8.91 7.36083C8.79084 7.57166 8.61667 7.79166 8.39667 8.01166L7.7 8.73583C7.59917 8.83666 7.55334 8.95583 7.55334 9.1025C7.55334 9.17583 7.5625 9.24 7.58084 9.31333C7.60834 9.38666 7.63584 9.44166 7.65417 9.49666C7.81917 9.79916 8.10334 10.1933 8.50667 10.67C8.91917 11.1467 9.35917 11.6325 9.83584 12.1183C9.9275 12.21 10.0283 12.3017 10.12 12.3933C10.4867 12.7508 10.4958 13.3375 10.1292 13.7042Z" fill="#F7F7F7"/>
<path d="M20.1392 16.8025C20.1392 17.0592 20.0933 17.325 20.0017 17.5817C19.9742 17.655 19.9467 17.7283 19.91 17.8017C19.7542 18.1317 19.5525 18.4433 19.2867 18.7367C18.8375 19.2317 18.3425 19.5892 17.7833 19.8183C17.7742 19.8183 17.765 19.8275 17.7558 19.8275C17.215 20.0475 16.6283 20.1667 15.9958 20.1667C15.0608 20.1667 14.0617 19.9467 13.0075 19.4975C11.9533 19.0483 10.8992 18.4433 9.85417 17.6825C9.49667 17.4167 9.13917 17.1508 8.8 16.8667L11.7975 13.8692C12.0542 14.0617 12.2833 14.2083 12.4758 14.3092C12.5217 14.3275 12.5767 14.355 12.6408 14.3825C12.7142 14.41 12.7875 14.4192 12.87 14.4192C13.0258 14.4192 13.145 14.3642 13.2458 14.2633L13.9425 13.5758C14.1717 13.3467 14.3917 13.1725 14.6025 13.0625C14.8133 12.9342 15.0242 12.87 15.2533 12.87C15.4275 12.87 15.6108 12.9067 15.8125 12.9892C16.0142 13.0717 16.225 13.1908 16.4542 13.3467L19.4883 15.5008C19.7267 15.6658 19.8917 15.8583 19.9925 16.0875C20.0842 16.3167 20.1392 16.5458 20.1392 16.8025Z" fill="#F7F7F7"/>
</svg>
