<svg width="59" height="53" viewBox="0 0 59 53" fill="none" xmlns="http://www.w3.org/2000/svg">
<path d="M49.5833 17.5C47.1528 17.5 45.0868 16.6493 43.3854 14.9479C41.684 13.2465 40.8333 11.1806 40.8333 8.75C40.8333 6.31944 41.684 4.25347 43.3854 2.55208C45.0868 0.850694 47.1528 0 49.5833 0C52.0139 0 54.0799 0.850694 55.7812 2.55208C57.4826 4.25347 58.3333 6.31944 58.3333 8.75C58.3333 11.1806 57.4826 13.2465 55.7812 14.9479C54.0799 16.6493 52.0139 17.5 49.5833 17.5ZM5.83333 52.5C4.22917 52.5 2.8559 51.9288 1.71354 50.7865C0.571181 49.6441 0 48.2708 0 46.6667V11.6667C0 10.0625 0.571181 8.68924 1.71354 7.54688C2.8559 6.40451 4.22917 5.83333 5.83333 5.83333H35.2917C35.0972 6.80556 35 7.77778 35 8.75C35 9.72222 35.0972 10.6944 35.2917 11.6667C35.6319 13.2222 36.191 14.6684 36.9688 16.0052C37.7465 17.342 38.6944 18.5208 39.8125 19.5417L29.1667 26.25L5.83333 11.6667V17.5L29.1667 32.0833L44.5521 22.4583C45.3785 22.75 46.2049 22.9688 47.0312 23.1146C47.8576 23.2604 48.7083 23.3333 49.5833 23.3333C51.1389 23.3333 52.6701 23.0903 54.1771 22.6042C55.684 22.1181 57.0694 21.3889 58.3333 20.4167V46.6667C58.3333 48.2708 57.7622 49.6441 56.6198 50.7865C55.4774 51.9288 54.1042 52.5 52.5 52.5H5.83333Z" fill="#D3DFF3"/>
</svg>
