<svg width="70" height="70" viewBox="0 0 70 70" fill="none" xmlns="http://www.w3.org/2000/svg">
<path d="M51.3917 31.3529C50.1375 31.3529 49.1459 30.332 49.1459 29.107C49.1459 28.0279 48.0667 25.782 46.2584 23.8279C44.4792 21.932 42.525 20.8237 40.8917 20.8237C39.6375 20.8237 38.6459 19.8029 38.6459 18.5779C38.6459 17.3529 39.6667 16.332 40.8917 16.332C43.8084 16.332 46.8709 17.907 49.5542 20.7362C52.0625 23.3904 53.6667 26.6862 53.6667 29.0779C53.6667 30.332 52.6459 31.3529 51.3917 31.3529Z" fill="#D3DFF3"/>
<path d="M61.9209 31.3548C60.6667 31.3548 59.675 30.334 59.675 29.109C59.675 18.7548 51.2459 10.3548 40.9209 10.3548C39.6667 10.3548 38.675 9.33398 38.675 8.10898C38.675 6.88398 39.6667 5.83398 40.8917 5.83398C53.725 5.83398 64.1667 16.2757 64.1667 29.109C64.1667 30.334 63.1459 31.3548 61.9209 31.3548Z" fill="#D3DFF3"/>
<path d="M32.2292 43.6048L26.8334 49.0006C25.6959 50.1381 23.8875 50.1381 22.7209 49.0298C22.4 48.709 22.0792 48.4173 21.7584 48.0965C18.7542 45.0632 16.0417 41.884 13.6209 38.559C11.2292 35.234 9.30421 31.909 7.90421 28.6132C6.53337 25.2882 5.83337 22.109 5.83337 19.0757C5.83337 17.0923 6.18337 15.1965 6.88337 13.4465C7.58337 11.6673 8.69171 10.034 10.2375 8.57565C12.1042 6.73815 14.1459 5.83398 16.3042 5.83398C17.1209 5.83398 17.9375 6.00898 18.6667 6.35898C19.425 6.70898 20.0959 7.23398 20.6209 7.99232L27.3875 17.5298C27.9125 18.259 28.2917 18.9298 28.5542 19.5715C28.8167 20.184 28.9625 20.7965 28.9625 21.3507C28.9625 22.0507 28.7584 22.7507 28.35 23.4215C27.9709 24.0923 27.4167 24.7923 26.7167 25.4923L24.5 27.7965C24.1792 28.1173 24.0334 28.4965 24.0334 28.9632C24.0334 29.1965 24.0625 29.4007 24.1209 29.634C24.2084 29.8673 24.2959 30.0423 24.3542 30.2173C24.8792 31.1798 25.7834 32.434 27.0667 33.9507C28.3792 35.4673 29.7792 37.0132 31.2959 38.559C31.5875 38.8507 31.9084 39.1423 32.2 39.434C33.3667 40.5715 33.3959 42.4382 32.2292 43.6048Z" fill="#D3DFF3"/>
<path d="M64.079 53.4598C64.079 54.2764 63.9332 55.1223 63.6415 55.9389C63.554 56.1723 63.4665 56.4056 63.3499 56.6389C62.854 57.6889 62.2124 58.6806 61.3666 59.6139C59.9374 61.1889 58.3624 62.3264 56.5832 63.0556C56.554 63.0556 56.5249 63.0848 56.4957 63.0848C54.7749 63.7848 52.9082 64.1639 50.8957 64.1639C47.9207 64.1639 44.7415 63.4639 41.3874 62.0348C38.0332 60.6056 34.679 58.6806 31.354 56.2598C30.2165 55.4139 29.079 54.5681 27.9999 53.6639L37.5374 44.1264C38.354 44.7389 39.0832 45.2056 39.6957 45.5264C39.8415 45.5848 40.0165 45.6723 40.2207 45.7598C40.454 45.8473 40.6874 45.8764 40.9499 45.8764C41.4457 45.8764 41.8249 45.7014 42.1457 45.3806L44.3624 43.1931C45.0915 42.4639 45.7915 41.9098 46.4624 41.5598C47.1332 41.1514 47.804 40.9473 48.5332 40.9473C49.0874 40.9473 49.6707 41.0639 50.3124 41.3264C50.954 41.5889 51.6249 41.9681 52.354 42.4639L62.0082 49.3181C62.7665 49.8431 63.2915 50.4556 63.6124 51.1848C63.904 51.9139 64.079 52.6431 64.079 53.4598Z" fill="#D3DFF3"/>
</svg>
