<svg width="62" height="62" viewBox="0 0 62 62" fill="none" xmlns="http://www.w3.org/2000/svg">
<path d="M35.5741 39.171C35.5741 40.5595 36.1258 41.8908 37.1072 42.8721C38.0885 43.8535 39.4198 44.4046 40.8076 44.4046C42.1961 44.4046 43.5273 43.8535 44.5087 42.8721C45.4901 41.8908 46.0411 40.5595 46.0411 39.171C46.0411 37.7832 45.4901 36.452 44.5087 35.4706C43.5273 34.4892 42.1961 33.9375 40.8076 33.9375C39.4231 33.9491 38.0987 34.5042 37.1201 35.4836C36.1407 36.4622 35.5857 37.7865 35.5741 39.171ZM45.0209 39.171C45.0209 40.2909 44.5762 41.3649 43.7845 42.1568C42.9927 42.9486 41.9185 43.3933 40.7993 43.3933C39.6795 43.3933 38.6054 42.9486 37.8135 42.1568C37.0217 41.365 36.5771 40.2908 36.5771 39.171C36.5771 38.0512 37.0217 36.9778 37.8135 36.1859C38.6053 35.394 39.6795 34.9495 40.7993 34.9495C41.9205 34.9467 42.9967 35.3907 43.7899 36.1825C44.5837 36.975 45.0297 38.0497 45.0297 39.1709L45.0209 39.171Z" fill="black" stroke="black" stroke-width="0.174589"/>
<path d="M21.1932 33.9707C19.8033 33.9707 18.4699 34.5238 17.4886 35.5079C16.5065 36.492 15.9568 37.8259 15.9595 39.2158C15.963 40.6064 16.5188 41.9377 17.5049 42.9176C18.4911 43.897 19.8264 44.4439 21.217 44.4378C22.6069 44.4317 23.9375 43.8724 24.9148 42.8842C25.8922 41.896 26.4364 40.5594 26.4268 39.1688C26.4064 37.7905 25.8471 36.4749 24.8692 35.5038C23.8912 34.532 22.5715 33.9823 21.1932 33.9707ZM21.1932 43.4175C20.0733 43.4175 18.9993 42.9729 18.2073 42.1811C17.4154 41.3893 16.9709 40.3151 16.9709 39.1953C16.9709 38.0754 17.4156 37.0021 18.2073 36.2102C18.9991 35.4184 20.0733 34.973 21.1932 34.973C22.313 34.973 23.3871 35.4184 24.179 36.2102C24.9708 37.002 25.4154 38.0755 25.4154 39.1953C25.4175 40.3165 24.9735 41.3927 24.1817 42.1865C23.3899 42.9804 22.3145 43.4264 21.1933 43.4264L21.1932 43.4175Z" fill="black" stroke="black" stroke-width="0.174589"/>
<path d="M9.16049 24.9122C8.09249 24.9122 7.06751 25.3371 6.31189 26.0928C5.55625 26.8477 5.13205 27.8727 5.13205 28.9413C5.13205 30.0093 5.55625 31.0343 6.31189 31.7892C7.06753 32.5449 8.09252 32.9698 9.16049 32.9698C10.2292 32.9698 11.2535 32.5449 12.0091 31.7892C12.7647 31.0343 13.1889 30.0093 13.1889 28.9413C13.1869 27.8734 12.7613 26.8498 12.0064 26.0947C11.2514 25.3397 10.2284 24.915 9.16049 24.9122ZM9.16049 31.9491V31.9497C8.36052 31.9497 7.59327 31.6312 7.02718 31.0659C6.46113 30.4998 6.14332 29.7326 6.14332 28.9326C6.14332 28.1319 6.46113 27.3647 7.02718 26.7993C7.59323 26.2332 8.36047 25.9154 9.16049 25.9154C9.96045 25.9154 10.7284 26.2332 11.2938 26.7993C11.8598 27.3646 12.1776 28.1319 12.1776 28.9326C12.1797 29.7339 11.8632 30.5039 11.2972 31.0713C10.7311 31.6394 9.96255 31.9579 9.16057 31.9579L9.16049 31.9491Z" fill="black" stroke="black" stroke-width="0.174589"/>
<path d="M52.8584 24.754C51.7897 24.754 50.7654 25.1789 50.0098 25.9338C49.2542 26.6895 48.83 27.7145 48.83 28.7824C48.83 29.8511 49.2542 30.8761 50.0098 31.631C50.7655 32.3867 51.7898 32.8109 52.8584 32.8109C53.9271 32.8109 54.9514 32.3867 55.707 31.631C56.4627 30.8761 56.8869 29.8511 56.8869 28.7824C56.8848 27.7151 56.4593 26.6914 55.7043 25.9365C54.9493 25.1815 53.9264 24.7567 52.8584 24.754ZM52.8584 31.7908C52.0585 31.7908 51.2912 31.473 50.7251 30.9077C50.1591 30.3416 49.8413 29.5744 49.8413 28.7743C49.8413 27.9737 50.1591 27.2064 50.7251 26.6403C51.2912 26.075 52.0584 25.7572 52.8584 25.7572C53.6584 25.7572 54.4263 26.075 54.9917 26.6403C55.5578 27.2064 55.8756 27.9736 55.8756 28.7743C55.8776 29.5757 55.5612 30.3456 54.9951 30.9131C54.4291 31.4805 53.6605 31.7996 52.8585 31.7996L52.8584 31.7908Z" fill="black" stroke="black" stroke-width="0.174589"/>
<path d="M52.8584 22.4591C51.5476 22.4604 50.2696 22.8703 49.2023 23.6321C48.135 24.3932 47.3316 25.4681 46.9033 26.7078H39.2597C38.978 26.7078 38.7495 26.9363 38.7495 27.218V31.616V31.6154C36.1013 32.3458 34.0206 34.3966 33.2521 37.0337H28.7489C27.981 34.3966 25.9003 32.3457 23.2514 31.6154V27.3938C23.2589 27.254 23.2085 27.1169 23.1116 27.0153C23.0155 26.9143 22.8811 26.8571 22.7413 26.8571H15.1152C14.4632 24.9624 12.9493 23.4915 11.037 22.8948C9.12473 22.298 7.04258 22.6458 5.42903 23.8325C3.81544 25.0198 2.86205 26.9035 2.86205 28.9064C2.86205 30.9095 3.81546 32.7931 5.42903 33.9803C7.04262 35.167 9.12473 35.5148 11.037 34.9181C12.9493 34.3213 14.4633 32.8502 15.1152 30.9558H19.1437V31.5893C17.5676 32.0162 16.1642 32.9226 15.1268 34.1835C14.0893 35.4445 13.4709 36.9974 13.3556 38.626H10.717C10.4633 38.6594 10.2737 38.8756 10.2737 39.1313C10.2737 39.3877 10.4633 39.6039 10.717 39.6373H13.3556C13.5056 42.0598 14.7679 44.2769 16.7751 45.6416C18.7814 47.007 21.3076 47.3657 23.6155 46.6148C25.9233 45.8633 27.7537 44.0861 28.5729 41.8014H33.4199C34.2505 44.054 36.068 45.8026 38.3513 46.5467C40.6346 47.2901 43.1328 46.9471 45.1316 45.6151C47.1298 44.2839 48.4087 42.1104 48.6016 39.7167H51.2402C51.4939 39.6832 51.6835 39.467 51.6835 39.2106C51.6835 38.9549 51.4939 38.7387 51.2402 38.7053H48.6016C48.4863 37.0767 47.8678 35.5237 46.8304 34.2629C45.7931 33.0025 44.3896 32.0955 42.8134 31.6686V30.868H46.8597C47.3767 32.3213 48.4092 33.5345 49.7616 34.2765C51.1133 35.0192 52.6907 35.2401 54.1953 34.8964C55.6991 34.5534 57.0241 33.6702 57.9203 32.4139C58.8158 31.1584 59.2202 29.6177 59.0551 28.084C58.8901 26.5502 58.1685 25.1303 57.0262 24.0937C55.8839 23.0564 54.4013 22.4754 52.8586 22.459L52.8584 22.4591ZM9.16049 34.2281C7.76105 34.2281 6.41821 33.6723 5.42864 32.682C4.43907 31.6925 3.88325 30.3504 3.88325 28.9502C3.88325 27.5508 4.43907 26.2086 5.42864 25.2191C6.41821 24.2288 7.76098 23.673 9.16049 23.673C10.5606 23.673 11.9028 24.2288 12.8923 25.2191C13.8819 26.2086 14.4384 27.5507 14.4384 28.9502C14.4384 30.3503 13.8819 31.6925 12.8923 32.682C11.9028 33.6723 10.5607 34.2281 9.16049 34.2281ZM20.1556 30.4813V27.904H22.2138V31.4223C21.5257 31.3193 20.826 31.3193 20.1378 31.4223L20.1556 30.4813ZM15.4675 29.9711V27.904H19.1442V29.98L15.4675 29.9711ZM21.1935 46.0504V46.0498C18.9586 46.0279 16.8745 44.9163 15.6128 43.0709C14.3504 41.2262 14.0687 38.8815 14.8578 36.7904C15.6476 34.6988 17.4084 33.1248 19.5752 32.5744H22.8563C25.0379 33.1173 26.8146 34.6974 27.6077 36.8014C28.4009 38.9054 28.1103 41.2643 26.8296 43.1125C25.5488 44.9614 23.4422 46.0622 21.1937 46.0587L21.1935 46.0504ZM32.9449 40.8604H29.0568V38.0459L32.9449 38.0452V40.8604ZM39.8058 27.7369H41.8818V31.4136C41.2025 31.3133 40.5117 31.3133 39.8325 31.4136L39.8058 27.7369ZM47.7223 39.1718V39.1711C47.7257 40.9348 47.0492 42.6308 45.834 43.9082C44.6187 45.1849 42.9573 45.9447 41.1965 46.0286C39.4356 46.1125 37.7102 45.5144 36.3782 44.3591C35.047 43.2032 34.2123 41.5786 34.0478 39.8233C33.8835 38.0678 34.4024 36.3165 35.4957 34.9341C36.5896 33.551 38.1746 32.6433 39.9205 32.3985H41.8294C43.4505 32.6427 44.9312 33.4604 46.0012 34.7036C47.0713 35.9462 47.6605 37.5318 47.6612 39.1714L47.7223 39.1718ZM46.5527 29.821H42.8755V27.7367H46.5522L46.5527 29.821ZM52.8509 34.0698H52.8502C51.4507 34.0698 50.1079 33.514 49.1183 32.5237C48.1288 31.5341 47.5729 30.1921 47.5729 28.7919C47.5729 27.3924 48.1288 26.0503 49.1183 25.06C50.1079 24.0705 51.4507 23.5146 52.8502 23.5146C54.2503 23.5146 55.5924 24.0705 56.582 25.06C57.5716 26.0503 58.1281 27.3924 58.1281 28.7919C58.1281 30.1899 57.5729 31.5313 56.5854 32.5209C55.5972 33.5105 54.2571 34.067 52.859 34.0697L52.8509 34.0698Z" fill="black" stroke="black" stroke-width="0.174589"/>
</svg>
