<svg width="50" height="50" viewBox="0 0 50 50" fill="none" xmlns="http://www.w3.org/2000/svg">
<path d="M33.3531 37.5297H11.4156C11.1695 37.54 10.9237 37.5016 10.6924 37.4169C10.4611 37.3321 10.2487 37.2026 10.0675 37.0357C9.88622 36.8688 9.73964 36.6679 9.6361 36.4443C9.53257 36.2208 9.4741 35.979 9.46405 35.7328V7.6797C9.4741 7.43354 9.53257 7.19178 9.6361 6.96822C9.73964 6.74467 9.88622 6.54371 10.0675 6.37684C10.2487 6.20996 10.4611 6.08044 10.6924 5.99567C10.9237 5.91091 11.1695 5.87256 11.4156 5.88283H33.3531C33.5999 5.87151 33.8465 5.90907 34.0787 5.99336C34.311 6.07764 34.5242 6.20699 34.7063 6.37397C34.8884 6.54095 35.0357 6.74226 35.1397 6.96634C35.2437 7.19043 35.3025 7.43286 35.3125 7.6797V35.7328C35.3025 35.9797 35.2437 36.2221 35.1397 36.4462C35.0357 36.6703 34.8884 36.8716 34.7063 37.0386C34.5242 37.2055 34.311 37.3349 34.0787 37.4192C33.8465 37.5035 33.5999 37.541 33.3531 37.5297Z" fill="#DCB67A"/>
<path d="M33.3532 37.5739H11.4157C10.907 37.5938 10.4111 37.411 10.037 37.0656C9.66289 36.7202 9.44113 36.2405 9.42041 35.7317V7.67861C9.44113 7.16988 9.66289 6.69015 10.037 6.34476C10.4111 5.99938 10.907 5.81655 11.4157 5.83643H33.3532C33.862 5.81655 34.3579 5.99938 34.732 6.34476C35.1061 6.69015 35.3278 7.16988 35.3485 7.67861V35.7317C35.3278 36.2405 35.1061 36.7202 34.732 37.0656C34.3579 37.411 33.862 37.5938 33.3532 37.5739ZM11.4157 5.92549C10.9308 5.90643 10.458 6.08015 10.1008 6.40867C9.7436 6.73719 9.53099 7.19378 9.50947 7.67861V35.7317C9.53139 36.2164 9.74412 36.6728 10.1012 37.0012C10.4584 37.3297 10.9309 37.5035 11.4157 37.4849H33.3532C33.8381 37.5035 34.3106 37.3297 34.6677 37.0012C35.0248 36.6728 35.2376 36.2164 35.2595 35.7317V7.67861C35.238 7.19378 35.0254 6.73719 34.6681 6.40867C34.3109 6.08015 33.8382 5.90643 33.3532 5.92549H11.4157Z" fill="#F9BF06"/>
<path d="M36.8219 34.6884H14.9062C14.4107 34.7087 13.9272 34.5319 13.5618 34.1966C13.1963 33.8612 12.9786 33.3948 12.9562 32.8993V4.95868C12.9786 4.46319 13.1963 3.99673 13.5618 3.66142C13.9272 3.32611 14.4107 3.14927 14.9062 3.16961H36.8219C37.3177 3.14885 37.8015 3.3255 38.1674 3.66085C38.5332 3.99621 38.7511 4.46291 38.7734 4.95868V32.8962C38.7519 33.3925 38.5343 33.86 38.1684 34.196C37.8025 34.532 37.3182 34.7091 36.8219 34.6884ZM33.5094 26.1837C33.1487 26.1837 32.7962 26.2906 32.4963 26.491C32.1965 26.6913 31.9627 26.9761 31.8247 27.3093C31.6867 27.6425 31.6506 28.0091 31.721 28.3628C31.7913 28.7166 31.965 29.0415 32.22 29.2965C32.475 29.5515 32.7999 29.7252 33.1536 29.7955C33.5073 29.8659 33.874 29.8298 34.2072 29.6917C34.5404 29.5537 34.8251 29.32 35.0255 29.0202C35.2259 28.7203 35.3328 28.3678 35.3328 28.0071C35.3324 27.5233 35.1402 27.0595 34.7985 26.7171C34.4567 26.3747 33.9931 26.1818 33.5094 26.1805V26.1837Z" fill="#F9BF06"/>
<path d="M36.8219 34.7296H14.9063C14.3993 34.7491 13.9052 34.5674 13.5317 34.224C13.1583 33.8807 12.9357 33.4036 12.9125 32.8968V4.9593C12.9357 4.4525 13.1583 3.9754 13.5317 3.63206C13.9052 3.28872 14.3993 3.10698 14.9063 3.12648H36.8219C37.3291 3.10656 37.8236 3.28811 38.1975 3.63149C38.5713 3.97488 38.7941 4.45222 38.8172 4.9593V32.8968C38.8158 33.1419 38.763 33.3841 38.662 33.6075C38.5611 33.8309 38.4143 34.0306 38.2313 34.1937C37.846 34.5438 37.3425 34.7352 36.8219 34.7296ZM14.9063 3.21554C14.4228 3.19601 13.9512 3.36831 13.5941 3.69492C13.2371 4.02152 13.0235 4.47598 13 4.9593V32.8968C13.0231 33.3803 13.2366 33.835 13.5937 34.1616C13.9508 34.4883 14.4227 34.6605 14.9063 34.6405H36.8219C37.3201 34.6457 37.802 34.4633 38.1719 34.1296C38.3461 33.9748 38.4858 33.785 38.5816 33.5726C38.6775 33.3601 38.7274 33.1299 38.7282 32.8968V4.9593C38.7051 4.47583 38.4916 4.02114 38.1345 3.69445C37.7774 3.36776 37.3055 3.1956 36.8219 3.21554H14.9063ZM33.5094 29.8718C33.1382 29.8733 32.775 29.7647 32.4656 29.5596C32.1562 29.3545 31.9147 29.0622 31.7716 28.7198C31.6285 28.3773 31.5902 28 31.6617 27.6358C31.7331 27.2716 31.9111 26.9368 32.173 26.6738C32.4349 26.4108 32.769 26.2314 33.1329 26.1584C33.4968 26.0854 33.8742 26.1221 34.2173 26.2638C34.5604 26.4055 34.8537 26.6458 35.0601 26.9543C35.2664 27.2628 35.3766 27.6256 35.3766 27.9968C35.3766 28.4927 35.1801 28.9685 34.8302 29.3199C34.4802 29.6713 34.0053 29.8697 33.5094 29.8718ZM33.5094 26.2265C33.1577 26.2265 32.8139 26.3308 32.5215 26.5262C32.2291 26.7215 32.0012 26.9992 31.8666 27.3241C31.7321 27.6491 31.6968 28.0066 31.7655 28.3515C31.8341 28.6964 32.0034 29.0133 32.2521 29.2619C32.5008 29.5106 32.8176 29.68 33.1625 29.7486C33.5074 29.8172 33.865 29.782 34.1899 29.6474C34.5148 29.5128 34.7925 29.2849 34.9879 28.9925C35.1833 28.7001 35.2875 28.3563 35.2875 28.0046C35.2867 27.5333 35.0991 27.0815 34.7658 26.7482C34.4325 26.4149 33.9807 26.2273 33.5094 26.2265Z" fill="#F9BF06"/>
<path d="M34.6703 10.718H16.8844V8.31641H34.6703V10.718ZM34.6703 13.2086H16.8844V15.6086H34.6703V13.2086ZM34.6703 18.5445H16.8844V20.9383H34.6703V18.5445ZM26.6672 23.8805H16.8844V26.2805H26.6672V23.8805Z" fill="white"/>
<path d="M26.7187 26.3266H16.8406V23.8359H26.7187V26.3266ZM16.9359 26.2375H26.6234V23.925H16.9359V26.2375ZM34.7218 20.9906H16.8406V18.5H34.7156L34.7218 20.9906ZM16.9359 20.9016H34.6265V18.5953H16.9296L16.9359 20.9016ZM34.7218 15.6547H16.8406V13.1641H34.7156L34.7218 15.6547ZM16.9296 15.5656H34.6265V13.2531H16.9296V15.5656ZM34.7156 10.7641H16.8406V8.27344H34.7156V10.7641ZM16.9296 10.675H34.6265V8.3625H16.9296V10.675Z" fill="#F9BF06"/>
<path fill-rule="evenodd" clip-rule="evenodd" d="M30.0656 37.5305C29.5324 37.6134 29.0519 37.8995 28.7251 38.3289C28.3982 38.7583 28.2503 39.2976 28.3125 39.8336V44.5852C28.2515 45.1204 28.4007 45.6583 28.7286 46.0857C29.0565 46.513 29.5376 46.7963 30.0703 46.8758H38.8203C39.3535 46.7974 39.8353 46.5144 40.1634 46.0868C40.4916 45.6592 40.6403 45.1206 40.5781 44.5852L40.489 39.8336C40.489 38.5711 39.7953 37.5336 38.825 37.5305V32.0321C38.9443 30.7826 38.5633 29.5368 37.7654 28.5678C36.9675 27.5989 35.8179 26.9859 34.5687 26.8633C34.3838 26.8512 34.1995 26.8942 34.039 26.9868C33.8574 27.0874 33.7077 27.2369 33.6069 27.4184C33.5061 27.5999 33.4582 27.806 33.4687 28.0133C33.465 28.219 33.5224 28.4211 33.6337 28.5942C33.7449 28.7672 33.905 28.9033 34.0937 28.9852C34.2132 29.0432 34.3437 29.0752 34.4765 29.079C35.7562 29.1024 36.8703 30.6008 36.8484 33.4446V37.529M35.0718 41.6993V43.6743C35.0655 43.7758 35.0207 43.8712 34.9465 43.9408C34.8723 44.0105 34.7744 44.0493 34.6726 44.0493C34.5709 44.0493 34.4729 44.0105 34.3988 43.9408C34.3246 43.8712 34.2798 43.7758 34.2734 43.6743V41.7008C34.044 41.6283 33.8434 41.4852 33.7003 41.2918C33.5572 41.0985 33.4789 40.8648 33.4765 40.6243C33.4922 40.3174 33.6252 40.0283 33.8479 39.8167C34.0706 39.605 34.3662 39.487 34.6734 39.487C34.9807 39.487 35.2762 39.605 35.4989 39.8167C35.7217 40.0283 35.8546 40.3174 35.8703 40.6243C35.8668 40.8645 35.788 41.0976 35.645 41.2907C35.5021 41.4839 35.3022 41.6273 35.0734 41.7008L35.0718 41.6993Z" fill="#F9BF06"/>
</svg>
