<svg width="62" height="62" viewBox="0 0 62 62" fill="none" xmlns="http://www.w3.org/2000/svg">
<path d="M15.6719 29.5515H18.0867C18.3747 29.5515 18.6373 29.4073 18.7986 29.1703C18.9509 28.9328 18.9764 28.6282 18.8662 28.3652L15.6719 21.1033H18.0866C18.3747 21.1033 18.6372 20.9591 18.7985 20.7221C18.9508 20.4846 18.9764 20.18 18.8661 19.917L10.9179 1.85225C10.7821 1.54715 10.4775 1.34375 10.1384 1.34375C9.79921 1.34375 9.49458 1.53864 9.35882 1.85225L1.41108 19.9085C1.29235 20.1711 1.31789 20.4762 1.47872 20.7136C1.63103 20.9511 1.90255 21.0949 2.19062 21.0949H4.60535L1.41102 28.3567C1.29229 28.6193 1.31783 28.9244 1.47866 29.1618C1.63097 29.3993 1.90249 29.5431 2.19056 29.5431H4.60529L1.41096 36.7794C1.29223 37.0419 1.31777 37.347 1.4786 37.5845C1.63942 37.8219 1.90242 37.9657 2.19049 37.9657L9.29107 37.9652V59.7331C9.29107 60.199 9.67232 60.5802 10.1383 60.5802C10.6042 60.5802 10.9854 60.199 10.9854 59.7331V37.9652H18.086C18.3741 37.9652 18.6366 37.821 18.7979 37.584C18.9502 37.3465 18.9758 37.0419 18.8656 36.7789L15.6712 29.5426L15.6719 29.5515ZM3.49595 36.2879L6.69028 29.0515C6.80901 28.789 6.78347 28.4839 6.62264 28.2465C6.46182 28.009 6.19881 27.8652 5.91074 27.8652L3.48693 27.8657L6.68126 20.6038C6.79999 20.3413 6.77445 20.0362 6.61362 19.7987C6.46131 19.5613 6.18979 19.4175 5.90172 19.4175H3.48699L10.1387 4.29288L16.7903 19.4005H14.3756C14.0876 19.4005 13.825 19.5448 13.6637 19.7818C13.5114 20.0192 13.4859 20.3239 13.5961 20.5869L16.7904 27.8487H14.3757C14.0876 27.8487 13.8251 27.993 13.6638 28.23C13.5115 28.4674 13.4859 28.7721 13.5961 29.0351L16.7905 36.2714H3.48712L3.49595 36.2879Z" fill="#1F1F1F" stroke="#1F1F1F" stroke-width="0.121094"/>
<path d="M60.5553 29.1618C60.7076 28.9244 60.7332 28.6197 60.623 28.3567L57.4286 21.0949H59.8434C60.1314 21.0949 60.394 20.9506 60.5553 20.7136C60.7076 20.4762 60.7331 20.1715 60.6229 19.9085L52.6752 1.85225C52.5394 1.54715 52.2348 1.34375 51.8956 1.34375C51.5565 1.34375 51.2518 1.53864 51.1161 1.85225L43.1679 19.917C43.0491 20.1795 43.0747 20.4846 43.2355 20.7221C43.3878 20.9595 43.6593 21.1033 43.9474 21.1033H46.3621L43.1678 28.3652C43.0491 28.6277 43.0746 28.9328 43.2354 29.1703C43.3963 29.4078 43.6593 29.5515 43.9473 29.5515H46.3621L43.1677 36.7879C43.049 37.0504 43.0745 37.3555 43.2354 37.5929C43.3962 37.8304 43.6592 37.9742 43.9473 37.9742H51.0478V59.742C51.0478 60.2079 51.4291 60.5892 51.895 60.5892C52.361 60.5892 52.7422 60.2079 52.7422 59.742V37.9742H59.8428C60.1309 37.9742 60.3934 37.8299 60.5547 37.5929C60.7155 37.3555 60.7325 37.0509 60.6223 36.7879L57.428 29.5515H59.8427C60.1308 29.5515 60.3933 29.4073 60.5546 29.1703L60.5553 29.1618ZM56.1321 27.8482C55.8441 27.8482 55.5815 27.9925 55.4202 28.2294C55.2679 28.4669 55.2424 28.7715 55.3526 29.0345L58.5469 36.2709H45.2521L48.4464 29.0345C48.5651 28.772 48.5396 28.4669 48.3787 28.2294C48.2264 27.992 47.9549 27.8482 47.6668 27.8482H45.2521L48.4464 20.5863C48.5652 20.3238 48.5396 20.0187 48.3788 19.7812C48.218 19.5438 47.955 19.4 47.6669 19.4H45.2522L51.9039 4.29234L58.5555 19.4H56.1408C55.8527 19.4 55.5902 19.5443 55.4289 19.7812C55.2766 20.0187 55.251 20.3233 55.3613 20.5863L58.5556 27.8482H56.1321Z" fill="#1F1F1F" stroke="#1F1F1F" stroke-width="0.121094"/>
<path d="M37.5584 31.2458C37.7107 31.0083 37.7363 30.7037 37.6261 30.4407L31.7965 17.1882C31.6607 16.8831 31.3561 16.6797 31.017 16.6797C30.6778 16.6797 30.3732 16.8746 30.2374 17.1882L24.4078 30.4407C24.2891 30.7032 24.3147 31.0083 24.4755 31.2458C24.6278 31.4832 24.8993 31.627 25.1874 31.627H26.6107L24.4079 36.6348C24.2892 36.8974 24.3147 37.2025 24.4755 37.4399C24.6279 37.6774 24.8994 37.8212 25.1874 37.8212H26.6108L24.408 42.8121C24.2892 43.0746 24.3148 43.3797 24.4756 43.6171C24.6364 43.8546 24.8994 43.9984 25.1875 43.9984H30.1699V59.7418C30.1699 60.2077 30.5512 60.589 31.0171 60.589C31.483 60.589 31.8643 60.2077 31.8643 59.7418V43.9984H36.8467C37.1347 43.9984 37.3973 43.8541 37.5586 43.6171C37.7194 43.3797 37.7364 43.075 37.6262 42.8121L35.4234 37.8212H36.8467C37.1348 37.8212 37.3973 37.6769 37.5586 37.4399C37.7109 37.2025 37.7365 36.8978 37.6263 36.6348L35.4235 31.627H36.8468C37.1349 31.627 37.3974 31.4827 37.5587 31.2458H37.5584ZM34.1266 29.9321C33.8386 29.9321 33.576 30.0764 33.4147 30.3134C33.2624 30.5508 33.2369 30.8555 33.3471 31.1185L35.5499 36.1263H34.1266C33.8385 36.1263 33.576 36.2706 33.4147 36.5076C33.2539 36.745 33.2368 37.0496 33.347 37.3126L35.5499 42.3035H26.4919L28.6947 37.3126C28.8135 37.0501 28.7879 36.745 28.6271 36.5076C28.4663 36.2701 28.2033 36.1263 27.9152 36.1263H26.4919L28.6947 31.1185C28.8134 30.8559 28.7879 30.5508 28.627 30.3134C28.4747 30.0759 28.2032 29.9321 27.9151 29.9321H26.4918L31.0253 19.6367L35.5588 29.9321H34.1266Z" fill="#1F1F1F" stroke="#1F1F1F" stroke-width="0.121094"/>
</svg>
