<svg width="50" height="50" viewBox="0 0 50 50" fill="none" xmlns="http://www.w3.org/2000/svg">
<path d="M26.5625 8.20768C28.6458 6.70768 31.0625 5.95768 33.7916 5.95768C35.2916 5.95768 36.9375 6.35352 38.7291 7.18685C40.5208 7.99935 41.9375 8.95768 42.9791 10.0618C45.125 12.7285 46.0208 15.8327 45.7083 19.3743C45.375 22.916 44.2083 25.6868 42.1875 27.6452L26.375 43.4577C25.9791 43.8535 25.4791 44.041 24.8958 44.041C24.3125 44.041 23.8333 43.8535 23.4375 43.4577C23.2448 43.268 23.0936 43.0405 22.9932 42.7896C22.8928 42.5386 22.8454 42.2695 22.8541 41.9993C22.8541 41.416 23.0416 40.916 23.4375 40.5202L33 30.9577C33.5208 30.4993 33.5208 30.0202 33 29.4993C32.4791 28.9785 32 28.9785 31.5416 29.4993L21.9791 39.0618C21.7863 39.2561 21.5553 39.4082 21.3007 39.5086C21.0461 39.609 20.7734 39.6555 20.5 39.6452C19.9166 39.6452 19.4375 39.4577 19.0416 39.0618C18.849 38.8722 18.6977 38.6447 18.5973 38.3937C18.497 38.1427 18.4496 37.8737 18.4583 37.6035C18.4583 37.0202 18.6458 36.5202 19.0416 36.1243L28.6041 26.5618C29.1666 26.041 29.1666 25.5202 28.6041 24.9993C28.125 24.4785 27.6666 24.4785 27.1458 24.9993L17.5833 34.666C17.3883 34.8572 17.1569 35.0074 16.9028 35.1076C16.6488 35.2078 16.3772 35.256 16.1041 35.2493C15.5208 35.2493 15.0208 35.0618 14.5833 34.666C14.1666 34.2702 13.9583 33.791 13.9583 33.2077C13.9583 32.6243 14.1875 32.1035 14.6458 31.6452L24.2291 22.0618C24.75 21.541 24.75 21.0618 24.2291 20.6035C23.7083 20.1452 23.2083 20.1452 22.75 20.6035L13.0833 30.2077C12.625 30.6243 12.1458 30.8535 11.625 30.8535C11.0416 30.8535 10.5416 30.6452 10.1666 30.2077C9.77079 29.791 9.56246 29.291 9.56246 28.7077C9.56246 28.1243 9.77079 27.6452 10.1666 27.2493C16.5416 20.8327 20.4791 16.9577 21.9791 15.5202L29.3958 22.8535C30.2083 23.6243 31.1458 24.0202 32.2916 24.0202C33.75 24.0202 34.8958 23.4368 35.75 22.2702C36.3333 21.416 36.5416 20.4785 36.375 19.4368C36.2083 18.3952 35.7708 17.5202 35.0625 16.791L26.5625 8.20768ZM30.8541 21.3952L21.9791 12.4993L7.22912 27.2493C5.47912 25.4785 4.47912 22.7702 4.24996 19.0827C4.02079 15.416 5.02079 12.2285 7.22912 9.56185C9.70829 7.10352 12.6666 5.85352 16.1041 5.85352C19.5625 5.85352 22.5 7.10352 24.8958 9.56185L33.7916 18.4577C34.1875 18.8535 34.375 19.3327 34.375 19.916C34.375 20.4993 34.1875 20.9993 33.7916 21.3952C33.3958 21.7702 32.9166 21.9785 32.2916 21.9785C31.7291 21.9785 31.25 21.7702 30.8541 21.3952Z" fill="#F9BF06"/>
</svg>
