<svg width="55" height="53" viewBox="0 0 55 53" fill="none" xmlns="http://www.w3.org/2000/svg">
<path fill-rule="evenodd" clip-rule="evenodd" d="M32.1805 15.346V16.4595C32.1805 17.3053 32.6899 18.0677 33.4713 18.3913C34.2527 18.7149 35.152 18.5361 35.7498 17.9382L38.8916 14.7964C39.0373 14.6507 39.235 14.5689 39.4413 14.5689H50.6292C52.7772 14.5689 54.5179 12.8276 54.5179 10.6797V4.13868C54.5179 1.99121 52.7772 0.25 50.6292 0.25H30.007C27.859 0.25 26.1178 1.99121 26.1178 4.13868V10.6797C26.1178 12.8276 27.859 14.5689 30.007 14.5689H31.4038C31.8328 14.5689 32.1805 14.9165 32.181 15.346L32.1805 15.346ZM33.1322 15.346C33.1322 14.391 32.3579 13.6167 31.4033 13.6167H30.0065C28.3845 13.6167 27.0695 12.3022 27.0695 10.6797V4.13866C27.0695 2.51661 28.384 1.20214 30.006 1.20165H50.6283C52.2504 1.20165 53.5653 2.51661 53.5653 4.13866V10.6797C53.5653 12.3017 52.2504 13.6167 50.6283 13.6167H39.4403C38.982 13.6167 38.5421 13.7988 38.2175 14.1233L35.0757 17.2651C34.7503 17.591 34.2603 17.6884 33.8345 17.512C33.4093 17.3355 33.1316 16.9202 33.1316 16.46V15.3465L33.1322 15.346Z" fill="#1F1F1F" stroke="#1F1F1F" stroke-width="0.5"/>
<path fill-rule="evenodd" clip-rule="evenodd" d="M22.8986 45.9114V49.5073C22.8986 49.7703 23.1119 49.9836 23.3745 49.9836C23.6375 49.9836 23.8503 49.7703 23.8503 49.5073V45.9114C23.8503 45.6484 23.637 45.435 23.3745 45.435C23.1115 45.435 22.8986 45.6484 22.8986 45.9114ZM22.8986 26.9578V41.0301C22.8986 41.2926 23.1119 41.5059 23.3745 41.5059C23.6375 41.5059 23.8503 41.2926 23.8503 41.0301V26.9578C23.8503 26.6948 23.637 26.4814 23.3745 26.4814C23.1115 26.4814 22.8986 26.6948 22.8986 26.9578ZM22.8986 17.7532V23.2833C22.8986 23.5463 23.1119 23.7592 23.3745 23.7592C23.6375 23.7592 23.8503 23.5458 23.8503 23.2833V17.7532C23.8503 17.4907 23.637 17.2773 23.3745 17.2773C23.1115 17.2773 22.8986 17.4907 22.8986 17.7532Z" fill="#1F1F1F" stroke="#1F1F1F" stroke-width="0.5"/>
<path fill-rule="evenodd" clip-rule="evenodd" d="M35.6377 48.8398V52.1491C35.6377 52.4116 35.851 52.6249 36.114 52.6249C36.3766 52.6249 36.5899 52.4116 36.5899 52.1491V48.8398C36.5899 48.5768 36.3766 48.364 36.114 48.364C35.851 48.364 35.6377 48.5773 35.6377 48.8398ZM35.6377 26.957V44.9346C35.6377 45.1976 35.851 45.4104 36.114 45.4104C36.3766 45.4104 36.5899 45.1971 36.5899 44.9346V26.957C36.5899 26.694 36.3766 26.4806 36.114 26.4806C35.851 26.4806 35.6377 26.694 35.6377 26.957ZM35.6377 20.3943V22.9675C35.6377 23.2305 35.851 23.4434 36.114 23.4434C36.3766 23.4434 36.5899 23.2301 36.5899 22.9675V20.3943C36.5899 20.1313 36.3766 19.918 36.114 19.918C35.851 19.918 35.6377 20.1313 35.6377 20.3943Z" fill="#1F1F1F" stroke="#1F1F1F" stroke-width="0.5"/>
<path fill-rule="evenodd" clip-rule="evenodd" d="M32.6249 27.6831C31.1603 25.2272 28.2285 25.0573 26.9761 26.8686C26.1942 27.9991 26.0253 30.0033 27.4926 32.8376C28.4183 34.6252 28.3294 36.3012 27.8417 38.0683C27.4992 39.31 26.9628 40.5947 26.4203 41.9867C26.1705 42.6282 26.3579 43.2952 26.8815 43.7861C27.8649 44.7075 30.2655 45.0159 32.5677 42.4796C32.8629 42.1546 33.1263 41.6083 33.3307 40.8959C33.6074 39.9314 33.7942 38.642 33.8813 37.2348C34.0994 33.7122 33.6802 29.454 32.624 27.683L32.6249 27.6831ZM31.8075 28.1708C32.8022 29.8386 33.1371 33.8575 32.9319 37.1762C32.8495 38.5049 32.6783 39.7229 32.4167 40.6335C32.2621 41.1713 32.0866 41.5947 31.8638 41.8402C30.3203 43.5402 28.7679 43.764 27.8634 43.3164C27.4273 43.1007 27.1563 42.7223 27.3081 42.3326C28.7357 38.669 30.0503 35.7051 28.3388 32.4001C27.1085 30.0241 27.1043 28.3581 27.7594 27.4107C28.6628 26.1032 30.7503 26.3989 31.8071 28.1713L31.8075 28.1708Z" fill="#1F1F1F" stroke="#1F1F1F" stroke-width="0.5"/>
<path fill-rule="evenodd" clip-rule="evenodd" d="M5.94793 15.5965C3.56771 16.2341 2.15285 18.6844 2.79101 21.0646C3.42912 23.4448 5.8789 24.8597 8.25912 24.2215C10.6393 23.5834 12.0542 21.1336 11.416 18.7534C10.7784 16.3732 8.32815 14.9583 5.94793 15.5965ZM6.19438 16.5161C8.06709 16.0142 9.99466 17.1272 10.4965 18.9999C10.9983 20.8726 9.88533 22.8007 8.0126 23.302C6.13989 23.8039 4.21183 22.6909 3.7105 20.8182C3.20863 18.9454 4.32165 17.0179 6.19438 16.5161Z" fill="#1F1F1F" stroke="#1F1F1F" stroke-width="0.5"/>
<path fill-rule="evenodd" clip-rule="evenodd" d="M51.3133 28.4714C49.942 27.6795 48.1856 28.1502 47.3943 29.5215C46.6025 30.8928 47.0731 32.6491 48.4444 33.4409C49.8157 34.2328 51.572 33.7621 52.3639 32.3908C53.1557 31.0196 52.685 29.2632 51.3137 28.4714H51.3133ZM50.8374 29.2959C51.7536 29.8247 52.0682 30.9983 51.5389 31.9145C51.0101 32.8308 49.8364 33.1453 48.9202 32.616C48.004 32.0872 47.6894 30.9136 48.2187 29.9974C48.7476 29.0811 49.9212 28.7666 50.8374 29.2959Z" fill="#1F1F1F" stroke="#1F1F1F" stroke-width="0.5"/>
<path fill-rule="evenodd" clip-rule="evenodd" d="M5.33881 13.3266C3.37055 13.854 1.58067 15.1274 0.744756 17.1283C0.192266 18.4504 0.0532019 20.0971 0.581558 22.0691C1.41928 25.1962 4.40449 28.6985 6.92057 31.1946L6.92105 31.1951C7.82783 32.09 9.14045 32.4372 10.3708 32.1075C11.6011 31.7778 12.5646 30.8204 12.9019 29.5924C12.9019 29.5924 12.9019 29.5919 12.9023 29.5915C13.8337 26.172 14.6676 21.6466 13.8299 18.5189C13.1677 16.0464 11.8617 14.5384 10.3249 13.7476C8.78239 12.9538 6.99287 12.8833 5.33824 13.3266L5.33881 13.3266ZM5.58526 14.2462C7.01284 13.8635 8.55823 13.9089 9.88978 14.5938C11.2265 15.2816 12.3344 16.6142 12.9105 18.7654C13.7113 21.753 12.874 26.0732 11.9843 29.3403C11.736 30.2423 11.0283 30.9452 10.1249 31.1874C9.22096 31.4296 8.25642 31.1747 7.5904 30.5176C5.18645 28.1332 2.30151 24.8101 1.5012 21.822C1.03859 20.0955 1.13981 18.6528 1.62324 17.4949C2.34129 15.7754 3.89424 14.6988 5.58531 14.2457L5.58526 14.2462Z" fill="#1F1F1F" stroke="#1F1F1F" stroke-width="0.5"/>
<path fill-rule="evenodd" clip-rule="evenodd" d="M13.4981 19.3719C13.2578 19.4258 13.0989 19.6533 13.1301 19.8974C13.5028 22.7828 12.7673 26.4677 11.9849 29.3403C11.7678 30.1298 11.1987 30.7669 10.4541 31.0763C10.2763 31.1501 10.1604 31.3237 10.1604 31.5157V49.0804C10.1604 49.7762 10.4007 50.4437 10.8297 50.9753C10.9612 51.1385 11.1845 51.1966 11.3789 51.1176C12.9063 50.4994 14.2559 49.4749 15.2804 47.8722C17.7817 43.9612 17.2624 38.8257 16.4005 34.4587C16.0169 32.5155 15.1825 30.7005 15.4606 28.6707C15.5874 27.7469 16.2634 27.0941 16.9904 26.4627C17.849 25.7168 18.7879 25.0072 19.3021 24.1019C20.1928 22.5348 20.409 20.443 20.4369 18.4152C20.4388 18.2695 20.374 18.1309 20.2609 18.0391C20.1479 17.9474 19.9989 17.9124 19.8565 17.944L13.4986 19.3707L13.4981 19.3719ZM14.122 20.2077L19.4705 19.0076C19.4156 20.676 19.2037 22.3486 18.4738 23.6328C18.0088 24.4502 17.1408 25.0713 16.3656 25.7453C15.4588 26.5338 14.675 27.389 14.5174 28.5428C14.2246 30.6804 15.0628 32.5985 15.4668 34.6444C16.2832 38.7819 16.849 43.6535 14.4786 47.3592C13.6499 48.6548 12.5818 49.5247 11.3728 50.0829C11.2044 49.7796 11.1131 49.4353 11.1131 49.08V31.8169C11.9816 31.3605 12.6372 30.5606 12.9035 29.5918C12.9035 29.5918 12.9035 29.5914 12.904 29.5909C13.6788 26.7471 14.3916 23.1351 14.1224 20.2071L14.122 20.2077Z" fill="#1F1F1F" stroke="#1F1F1F" stroke-width="0.5"/>
<path fill-rule="evenodd" clip-rule="evenodd" d="M33.6045 46.6399C33.2932 46.6451 32.9806 46.6451 32.6674 46.6404C32.4044 46.6362 32.1883 46.8462 32.184 47.1087C32.1797 47.3717 32.3898 47.5879 32.6523 47.5921C32.9758 47.5973 33.2984 47.5969 33.6192 47.5917C33.8822 47.5874 34.0917 47.3708 34.0879 47.1082C34.0837 46.8457 33.867 46.6357 33.6045 46.6399ZM36.4185 46.481C36.111 46.5099 35.7983 46.5359 35.4809 46.5581C35.2189 46.5766 35.0212 46.8041 35.0396 47.0661C35.0581 47.3282 35.2856 47.5259 35.5476 47.5075C35.8726 47.4847 36.1933 47.4583 36.5079 47.4285C36.7695 47.4039 36.962 47.1716 36.9374 46.91C36.9128 46.6484 36.6805 46.4559 36.419 46.4805L36.4185 46.481ZM30.8023 46.5439C30.492 46.516 30.1836 46.481 29.878 46.4389C29.6178 46.4034 29.3775 46.5855 29.3416 46.8457C29.3061 47.1059 29.4882 47.3462 29.7484 47.3821C30.0681 47.4261 30.3912 47.4625 30.7162 47.4923C30.9778 47.516 31.2095 47.323 31.2337 47.0614C31.2573 46.7998 31.0643 46.568 30.8027 46.5439L30.8023 46.5439ZM39.222 46.1258C38.9245 46.1731 38.6133 46.2194 38.2897 46.2634C38.0291 46.2994 37.847 46.5396 37.8829 46.7998C37.9184 47.06 38.1591 47.2426 38.4193 47.2066C38.7495 47.1612 39.0674 47.1139 39.3706 47.0657C39.6298 47.025 39.8076 46.7809 39.7665 46.5212C39.7253 46.262 39.4817 46.0841 39.222 46.1253V46.1258ZM28.0639 46.0874C27.7644 46.0103 27.4707 45.9238 27.1845 45.8273C26.9357 45.7431 26.6656 45.877 26.5814 46.1258C26.4972 46.375 26.6311 46.6451 26.8804 46.7289C27.1883 46.8329 27.5043 46.9261 27.8264 47.0089C28.0809 47.0746 28.3406 46.9209 28.4063 46.6664C28.4721 46.4119 28.3183 46.1523 28.0639 46.0865L28.0639 46.0874ZM41.9981 45.6002C41.7526 45.6551 41.4423 45.7218 41.0776 45.7947C40.8198 45.8462 40.6524 46.0969 40.7039 46.3547C40.7555 46.612 41.0062 46.7795 41.264 46.7284C41.6372 46.6541 41.9551 46.5855 42.2062 46.5293C42.4626 46.472 42.6244 46.2171 42.5667 45.9607C42.5094 45.7043 42.2545 45.5425 41.9981 45.6002ZM25.5282 45.0969C25.2661 44.9484 25.0159 44.7862 24.7794 44.6102C24.5684 44.4536 24.2699 44.4976 24.1133 44.7081C23.9568 44.9191 24.0003 45.2176 24.2113 45.3741C24.479 45.5733 24.7619 45.7563 25.0575 45.9247C25.286 46.0543 25.5769 45.9744 25.7065 45.7459C25.8361 45.5175 25.7562 45.227 25.5282 45.0969ZM23.5311 43.3719C23.3589 43.1401 23.2033 42.8927 23.0656 42.6292C22.944 42.3965 22.656 42.3061 22.4232 42.4277C22.1905 42.5493 22.1002 42.8373 22.2217 43.0701C22.383 43.3789 22.5651 43.668 22.7667 43.9395C22.9232 44.1504 23.2217 44.1949 23.4327 44.0383C23.6436 43.8818 23.6881 43.5833 23.5315 43.3723L23.5311 43.3719ZM22.3381 40.9316C22.2232 40.6284 22.1186 40.3356 22.0235 40.0527C21.9398 39.8034 21.6697 39.6695 21.4204 39.7533C21.1711 39.837 21.0373 40.1071 21.121 40.3559C21.2203 40.6501 21.3282 40.9547 21.4479 41.2698C21.5415 41.5153 21.8163 41.6392 22.0618 41.5455C22.3073 41.4524 22.4313 41.1771 22.3376 40.9316H22.3381ZM21.4876 38.2571C21.4025 37.9392 21.3249 37.6346 21.2497 37.3404C21.1844 37.0859 20.9252 36.9322 20.6702 36.9974C20.4157 37.0627 20.262 37.3219 20.3268 37.5769C20.403 37.8735 20.4815 38.1819 20.5676 38.5031C20.6352 38.7571 20.8968 38.9075 21.1504 38.8399C21.4039 38.7722 21.5548 38.5106 21.4871 38.2571H21.4876ZM20.7227 35.4739C20.6144 35.1532 20.4943 34.8433 20.3557 34.542C20.2459 34.3031 19.9631 34.1986 19.7242 34.3083C19.4858 34.4181 19.3808 34.701 19.4905 34.9398C19.6154 35.2113 19.7228 35.4904 19.8207 35.779C19.9049 36.0283 20.175 36.1616 20.4243 36.0774C20.6731 35.9932 20.8069 35.7227 20.7227 35.4739ZM19.2592 32.8326C19.0515 32.5913 18.8183 32.3515 18.5549 32.1112C18.3609 31.9343 18.0596 31.948 17.8822 32.142C17.7053 32.3359 17.719 32.6372 17.913 32.8146C18.1467 33.0279 18.3538 33.2408 18.5383 33.4546C18.71 33.6538 19.0104 33.676 19.2095 33.5043C19.4087 33.3326 19.4309 33.0322 19.2592 32.8331L19.2592 32.8326ZM16.9825 30.9107C16.7247 30.7418 16.4485 30.5711 16.1519 30.3979C15.9248 30.2655 15.633 30.3421 15.5005 30.5692C15.3681 30.7962 15.4447 31.0881 15.6718 31.2201C15.9537 31.3847 16.2162 31.5469 16.4612 31.7073C16.6812 31.8511 16.9764 31.7896 17.1202 31.5696C17.264 31.3497 17.2025 31.0545 16.9825 30.9107Z" fill="#1F1F1F" stroke="#1F1F1F" stroke-width="0.5"/>
<path fill-rule="evenodd" clip-rule="evenodd" d="M42.5933 33.6293C42.4892 33.3615 42.3667 33.0602 42.2253 32.7324C42.1212 32.4912 41.8407 32.38 41.5995 32.4841C41.3582 32.5882 41.2471 32.8687 41.3511 33.1099C41.4874 33.4259 41.6061 33.7168 41.7064 33.9746C41.8015 34.2191 42.0777 34.3407 42.3227 34.2452C42.5677 34.1501 42.6888 33.8738 42.5933 33.6288L42.5933 33.6293ZM41.3942 30.9818C41.2495 30.7037 41.0948 30.4184 40.9302 30.1294C40.8001 29.9009 40.5092 29.8215 40.2807 29.9515C40.0522 30.0816 39.9728 30.3725 40.1028 30.601C40.2613 30.8791 40.4103 31.1535 40.5494 31.4212C40.6705 31.6544 40.9581 31.7452 41.1913 31.6242C41.4245 31.5026 41.5153 31.2155 41.3942 30.9823V30.9818ZM17.1815 28.8706C16.9308 29.0078 16.6593 29.1417 16.3632 29.2727C16.1229 29.3787 16.0136 29.6601 16.12 29.9004C16.226 30.1407 16.5074 30.25 16.7477 30.1436C17.0699 30.0012 17.365 29.855 17.638 29.706C17.8683 29.5802 17.9535 29.2907 17.8277 29.0599C17.7018 28.8295 17.4123 28.7444 17.1815 28.8702L17.1815 28.8706ZM39.8975 28.4818C39.7149 28.2169 39.5233 27.9535 39.3237 27.6928C39.1638 27.4842 38.8649 27.4445 38.6563 27.6048C38.4477 27.7647 38.4079 28.0637 38.5683 28.2723C38.758 28.5202 38.9401 28.7713 39.1142 29.023C39.2632 29.2391 39.5602 29.2935 39.7764 29.1445C39.9926 28.9955 40.047 28.6985 39.898 28.4823L39.8975 28.4818ZM19.4072 27.2585C19.1754 27.4601 18.9417 27.6606 18.6939 27.8579C18.4886 28.0215 18.4545 28.3214 18.6187 28.5267C18.7824 28.732 19.0822 28.7661 19.2875 28.6019C19.5458 28.3957 19.7899 28.1871 20.0321 27.9766C20.2303 27.8039 20.2515 27.5031 20.0789 27.3049C19.9067 27.1067 19.6059 27.0854 19.4072 27.2576L19.4072 27.2585ZM38.0472 26.2075C37.8187 25.9724 37.5822 25.7444 37.3376 25.5249C37.1423 25.3494 36.841 25.366 36.6655 25.5613C36.49 25.7567 36.5065 26.0585 36.7024 26.2335C36.9308 26.4383 37.1517 26.6517 37.3646 26.8707C37.5477 27.0594 37.8494 27.0637 38.0377 26.8806C38.2264 26.6975 38.2307 26.3957 38.0476 26.2075H38.0472ZM21.7116 25.4568C21.4169 25.6427 21.1478 25.83 20.8961 26.0183C20.6861 26.1758 20.6431 26.4747 20.8006 26.6848C20.9581 26.8948 21.2566 26.9378 21.4671 26.7803C21.6989 26.6062 21.9472 26.4336 22.2192 26.2619C22.4415 26.1219 22.5082 25.8277 22.3682 25.6053C22.2282 25.383 21.9339 25.3163 21.7116 25.4563L21.7116 25.4568ZM24.3685 24.1739C24.044 24.2936 23.7418 24.4156 23.4594 24.5386C23.2186 24.6436 23.1084 24.9246 23.2134 25.1654C23.3184 25.4062 23.5994 25.5164 23.8402 25.4114C24.107 25.295 24.3917 25.1805 24.6982 25.0675C24.9447 24.9767 25.071 24.7028 24.9802 24.4558C24.8893 24.2094 24.6155 24.0831 24.369 24.1739H24.3685ZM35.7632 24.3234C35.4837 24.1455 35.1951 23.9795 34.8981 23.8282C34.6639 23.709 34.3773 23.8017 34.2576 24.0358C34.1384 24.27 34.2311 24.5566 34.4652 24.6763C34.7353 24.8139 34.9974 24.9648 35.2519 25.1266C35.4732 25.2681 35.7679 25.2023 35.9089 24.9809C36.0499 24.7591 35.9846 24.4649 35.7627 24.3234L35.7632 24.3234ZM27.1584 23.3447C26.8306 23.4237 26.5189 23.5037 26.2218 23.5855C25.9683 23.655 25.8188 23.9171 25.8883 24.1706C25.9579 24.4242 26.2199 24.5732 26.4735 24.5036C26.7615 24.4246 27.0638 24.3471 27.3812 24.2704C27.6366 24.2089 27.7942 23.9516 27.7327 23.6962C27.6712 23.4407 27.4138 23.2832 27.1584 23.3447ZM33.0305 23.1092C32.7107 23.024 32.3829 22.9559 32.0466 22.9058C31.7869 22.867 31.5443 23.0467 31.5055 23.3064C31.4667 23.5661 31.646 23.8088 31.9056 23.8476C32.2065 23.8925 32.4998 23.954 32.7855 24.0297C33.0395 24.0973 33.3001 23.946 33.3678 23.6919C33.4354 23.4379 33.2836 23.1768 33.03 23.1096L33.0305 23.1092ZM30.0453 22.8272C29.7217 22.849 29.3911 22.8873 29.0538 22.9436C28.7946 22.9867 28.6196 23.2322 28.6626 23.4914C28.7057 23.7506 28.9512 23.9261 29.2104 23.8826C29.516 23.8315 29.8159 23.7969 30.1091 23.7771C30.3712 23.7596 30.5699 23.5325 30.5524 23.2705C30.5349 23.0084 30.3078 22.8098 30.0453 22.8272Z" fill="#1F1F1F" stroke="#1F1F1F" stroke-width="0.5"/>
<path fill-rule="evenodd" clip-rule="evenodd" d="M33.728 5.1875C32.5014 5.1875 31.5057 6.18322 31.5057 7.40981C31.5057 8.63641 32.5014 9.63212 33.728 9.63212C34.9546 9.63212 35.9503 8.63641 35.9503 7.40981C35.9503 6.18322 34.9546 5.1875 33.728 5.1875ZM33.728 6.13922C34.429 6.13922 34.998 6.70827 34.998 7.40926C34.998 8.11028 34.429 8.67929 33.728 8.67929C33.027 8.67929 32.458 8.11024 32.458 7.40926C32.458 6.70823 33.027 6.13922 33.728 6.13922Z" fill="#1F1F1F" stroke="#1F1F1F" stroke-width="0.5"/>
<path fill-rule="evenodd" clip-rule="evenodd" d="M40.318 5.1875C39.0914 5.1875 38.0956 6.18322 38.0956 7.40981C38.0956 8.63641 39.0914 9.63212 40.318 9.63212C41.5445 9.63212 42.5403 8.63641 42.5403 7.40981C42.5403 6.18322 41.5445 5.1875 40.318 5.1875ZM40.318 6.13922C41.019 6.13922 41.588 6.70827 41.588 7.40926C41.588 8.11028 41.0189 8.67929 40.318 8.67929C39.6169 8.67929 39.0479 8.11024 39.0479 7.40926C39.0479 6.70823 39.617 6.13922 40.318 6.13922Z" fill="#1F1F1F" stroke="#1F1F1F" stroke-width="0.5"/>
<path fill-rule="evenodd" clip-rule="evenodd" d="M46.9079 5.1875C45.6813 5.1875 44.6855 6.18322 44.6855 7.40981C44.6855 8.63641 45.6813 9.63212 46.9079 9.63212C48.1345 9.63212 49.1302 8.63641 49.1302 7.40981C49.1302 6.18322 48.1345 5.1875 46.9079 5.1875ZM46.9079 6.13922C47.6089 6.13922 48.1779 6.70827 48.1779 7.40926C48.1779 8.11028 47.6088 8.67929 46.9079 8.67929C46.2068 8.67929 45.6378 8.11024 45.6378 7.40926C45.6378 6.70823 46.2069 6.13922 46.9079 6.13922Z" fill="#1F1F1F" stroke="#1F1F1F" stroke-width="0.5"/>
<path fill-rule="evenodd" clip-rule="evenodd" d="M52.1561 27.0103C50.9764 26.3291 49.527 26.0884 48.186 26.6394C47.3034 27.0023 46.46 27.7089 45.7803 28.8859C44.7254 30.7127 44.4799 33.7003 44.4894 36.0096V36.0105C44.4951 36.8908 44.9672 37.7016 45.7292 38.1415C46.4912 38.5814 47.4297 38.5843 48.1945 38.1491C48.195 38.1491 48.195 38.1486 48.1954 38.1486C50.2002 37.0025 52.665 35.2962 53.7194 33.4689C54.5727 31.9907 54.6626 30.663 54.3107 29.5656C53.9568 28.462 53.147 27.5817 52.156 27.0099L52.1561 27.0103ZM51.6802 27.8348C52.4683 28.2898 53.1229 28.98 53.4044 29.8569C53.6877 30.7405 53.5822 31.8039 52.8954 32.9935C51.9129 34.6955 49.5913 36.2541 47.7238 37.3221C47.2527 37.5898 46.6747 37.5879 46.2054 37.3169C45.7357 37.0459 45.4453 36.5463 45.442 36.0042C45.4335 33.8534 45.6227 31.063 46.6051 29.3616C47.1581 28.4043 47.8298 27.8149 48.5479 27.5202C49.607 27.085 50.7489 27.2969 51.6802 27.8348Z" fill="#1F1F1F" stroke="#1F1F1F" stroke-width="0.5"/>
<path fill-rule="evenodd" clip-rule="evenodd" d="M49.3273 37.2064C49.3273 37.0338 49.2336 36.8748 49.0832 36.7906C48.9328 36.7064 48.7478 36.7107 48.6012 36.8015C48.3027 36.9855 48.008 37.1601 47.7237 37.3228C47.2526 37.5905 46.6746 37.5886 46.2053 37.3176C45.7356 37.0465 45.4452 36.547 45.4419 36.0049C45.4334 33.8541 45.6226 31.0637 46.6051 29.3623C47.2649 28.219 48.0964 27.6017 48.9678 27.3822C49.1793 27.3287 49.3273 27.1386 49.3273 26.9205V20.8199C49.3273 19.9032 48.9111 19.0366 48.1954 18.4638C47.4802 17.891 46.5431 17.6744 45.6487 17.8749L36.9607 19.8243C36.4025 19.9496 35.8235 19.9496 35.2654 19.8243C32.9031 19.2945 26.7925 17.9232 24.4307 17.3934C23.7354 17.2373 23.0141 17.2373 22.3187 17.3934L13.4973 19.3726C13.2575 19.4265 13.0981 19.654 13.1293 19.8981C13.502 22.7835 12.7665 26.4684 11.9841 29.341C11.767 30.1305 11.1979 30.7676 10.4534 31.077C10.2755 31.1508 10.1596 31.3244 10.1596 31.5165V49.0811C10.1596 49.9978 10.5763 50.8644 11.2916 51.4372C12.0072 52.0101 12.9439 52.2267 13.8383 52.0261L22.5268 50.0768C23.0849 49.9514 23.6639 49.9514 24.2216 50.0768C26.5839 50.6066 32.6944 51.9778 35.0567 52.5076C35.752 52.6637 36.4734 52.6637 37.1687 52.5076C39.2387 52.0431 44.1879 50.9324 46.9701 50.3085C48.3481 49.9992 49.3272 48.776 49.3272 47.3635V37.2054L49.3273 37.2064ZM48.3756 38.046V47.3641C48.3756 48.3309 47.7053 49.1681 46.7616 49.3797C43.9797 50.0041 39.0305 51.1142 36.9605 51.5788C36.4024 51.7041 35.8234 51.7041 35.2652 51.5788C32.9029 51.049 26.7924 49.6777 24.4306 49.1479C23.7353 48.9918 23.0139 48.9918 22.3186 49.1479L13.6301 51.0973C13.018 51.2345 12.3766 51.0864 11.8866 50.6943C11.397 50.3021 11.1118 49.709 11.1118 49.0813V31.8182C11.9803 31.3617 12.6359 30.5618 12.9022 29.5931C12.9022 29.5931 12.9022 29.5926 12.9027 29.5921C13.6775 26.7484 14.3903 23.1364 14.1211 20.2083L22.5267 18.3224C23.0849 18.1971 23.6638 18.1971 24.2215 18.3224C26.5838 18.8522 32.6943 20.2235 35.0566 20.7533C35.752 20.9094 36.4733 20.9094 37.1686 20.7533L45.8566 18.8039C46.4692 18.6667 47.1106 18.8148 47.6001 19.2069C48.0902 19.599 48.3754 20.1922 48.3754 20.8199V26.5671C47.4227 26.9034 46.5079 27.6257 45.7804 28.8863C44.7255 30.7131 44.4801 33.7007 44.4895 36.01V36.0109C44.4952 36.8912 44.9673 37.702 45.7293 38.1419C46.4913 38.5819 47.4298 38.5847 48.1946 38.1495L48.3753 38.0454L48.3756 38.046Z" fill="#1F1F1F" stroke="#1F1F1F" stroke-width="0.5"/>
<path fill-rule="evenodd" clip-rule="evenodd" d="M46.5639 50.3829L46.5843 50.3834L46.9637 50.3101H46.9613L46.9717 50.3082C48.3496 49.9988 49.3288 48.7756 49.3288 47.3632V37.205C49.3288 37.0324 49.2351 36.8734 49.0847 36.7892C48.9338 36.7055 48.7493 36.7093 48.6027 36.8001C48.3042 36.9841 48.0095 37.1587 47.7252 37.3214C47.2541 37.5891 46.6761 37.5872 46.2068 37.3162C45.7371 37.0451 45.4467 36.5456 45.4434 36.0035C45.4349 33.8527 45.6241 31.0623 46.6065 29.3609C47.2664 28.2176 48.0979 27.6003 48.9693 27.3808C49.1808 27.3273 49.3288 27.1372 49.3288 26.9191V23.9164C49.3288 23.7659 49.2579 23.6245 49.1373 23.5346C49.0166 23.4448 48.861 23.4173 48.7167 23.4604C48.362 23.5663 48.0077 23.6917 47.6515 23.836C46.6685 24.2343 45.7286 24.7588 44.8626 25.3705C44.1644 25.8634 43.5216 26.4073 42.9785 27.0705C41.4355 28.9541 41.3631 30.972 41.6971 33.0368C42.006 34.9445 42.6776 36.89 42.6776 38.7873C42.6776 40.0044 42.2789 41.1486 42.0376 42.2915C41.7685 43.5682 41.6833 44.8402 42.3569 46.1878C43.1852 47.8439 44.8039 49.1035 46.2887 50.2804C46.3677 50.3429 46.4642 50.3788 46.5645 50.3826L46.5639 50.3829ZM46.755 49.3816L46.7011 49.3939C45.3724 48.3442 43.943 47.2326 43.2078 45.763C42.6421 44.6315 42.7423 43.561 42.9685 42.4892C43.2229 41.283 43.6288 40.073 43.6288 38.7887C43.6288 36.8422 42.9528 34.8437 42.6359 32.8864C42.3445 31.0861 42.3687 29.3183 43.7139 27.6756C44.2021 27.0796 44.783 26.5933 45.4107 26.15C46.2177 25.58 47.0928 25.0909 48.008 24.72C48.131 24.6704 48.254 24.6231 48.3765 24.5781V26.5677C47.4234 26.904 46.509 27.6263 45.781 28.8869C44.7262 30.7137 44.4807 33.7013 44.4901 36.0106V36.0115C44.4958 36.8918 44.9679 37.7026 45.7299 38.1425C46.4919 38.5825 47.4304 38.5853 48.1952 38.1501L48.3759 38.046V47.3641C48.3759 48.331 47.7057 49.1681 46.762 49.3797L46.7544 49.3816L46.755 49.3816Z" fill="#1F1F1F" stroke="#1F1F1F" stroke-width="0.5"/>
</svg>
