<svg width="18" height="14" viewBox="0 0 18 14" fill="none" xmlns="http://www.w3.org/2000/svg">
<path d="M15.8198 0.000462532C16.2625 0.000462532 16.6531 0.169728 16.9916 0.508258C17.3301 0.846788 17.4994 1.2374 17.4994 1.68009V12.0704C17.4994 12.5131 17.3301 12.9037 16.9916 13.2422C16.6531 13.5807 16.2625 13.75 15.8198 13.75H1.67963C1.23694 13.75 0.846326 13.5807 0.507795 13.2422C0.169265 12.9037 0 12.5131 0 12.0704V1.68009C0 1.2374 0.169265 0.846788 0.507795 0.508258C0.846326 0.169728 1.23694 0.000462532 1.67963 0.000462532H15.8198ZM15.6245 3.55503V1.8754L8.74971 6.44556L1.87494 1.8754V3.55503L8.74971 8.12519L15.6245 3.55503Z" fill="#E1E1E1"/>
</svg>
