<svg width="96" height="40" viewBox="0 0 96 40" fill="none" xmlns="http://www.w3.org/2000/svg">
<path d="M51.4458 39.5088C51.3917 39.4544 51.7805 37.8402 52.0068 37.1798C52.4387 35.9204 53.2457 34.6732 54.0551 34.014C54.9621 33.2757 55.7951 32.8615 56.9718 32.5641C58.1516 32.2659 56.7441 32.292 71.7233 32.2903C79.4633 32.2894 85.3883 32.2738 85.697 32.2535C86.1179 32.2256 86.3111 32.1932 86.5966 32.1024C87.3678 31.8569 88.0112 31.4451 88.6276 30.8021C89.3932 30.0038 89.8208 29.1833 90.046 28.081C90.1545 27.55 90.1347 26.4045 90.0084 25.9084C89.6235 24.394 88.5792 23.0329 87.2284 22.2846C86.9093 22.1079 86.6527 22.002 86.2138 21.8657L85.8884 21.7646L69.254 21.7635C53.5435 21.7626 52.5982 21.7588 52.2367 21.6947C50.7377 21.4292 48.4214 20.7042 47.3389 20.1615C45.6894 19.3346 44.404 18.0243 43.3559 16.1014C43.216 15.8445 42.9158 15.2037 42.689 14.6773C41.9905 13.0565 41.5498 12.2703 40.8577 11.4109C40.5754 11.0603 39.6638 10.1275 39.3021 9.8192C39.221 9.75007 39.1649 9.68294 39.1777 9.67009C39.2339 9.61366 39.4559 9.80146 40.1212 10.4679C41.2758 11.6247 41.8019 12.4075 42.5906 14.1422C42.6481 14.2685 42.7358 14.404 42.7856 14.4433C42.8353 14.4828 42.8763 14.5354 42.8763 14.5603C42.8765 14.5853 42.9032 14.657 42.9358 14.7198C42.969 14.7836 42.985 14.8741 42.9725 14.9248C42.9561 14.9904 43.0341 15.1872 43.2553 15.6381C43.9262 17.0051 44.8131 18.2035 45.7117 18.957C45.9679 19.1719 46.0264 19.2054 46.0749 19.1649C46.1176 19.1292 46.1552 19.1273 46.2178 19.1574C46.2644 19.1797 46.3346 19.2086 46.278 19.3381C46.1415 19.2946 46.2094 19.3528 46.5654 19.5847C47.043 19.8957 48.0391 20.3983 48.1779 20.3983C48.2039 20.3983 48.3524 20.4572 48.5081 20.5294C48.6636 20.6014 48.8686 20.6803 48.9633 20.7048C49.0581 20.7292 49.1873 20.7724 49.2505 20.8007C49.3136 20.8291 49.5375 20.8995 49.7481 20.9573C49.9587 21.0149 50.1655 21.0767 50.2075 21.0944C50.338 21.1494 50.6978 21.2431 50.8529 21.2625C50.9343 21.2728 51.0204 21.2969 51.0444 21.3162C51.0684 21.3356 51.1527 21.3621 51.2317 21.3752C51.3106 21.3882 51.4399 21.4096 51.5188 21.4226C51.5977 21.4356 51.6925 21.473 51.7294 21.5055C51.7899 21.5592 51.8034 21.5585 51.8698 21.498C51.9332 21.4404 51.9901 21.4349 52.2865 21.4583C52.6513 21.4869 52.7747 21.5268 52.6829 21.5863C52.5983 21.6412 53.4981 21.6693 55.2227 21.666C56.8513 21.6626 57.0416 21.6534 56.9694 21.5806C56.9431 21.5543 56.9426 21.5175 56.9678 21.4701C56.9995 21.4106 57.0538 21.3988 57.3011 21.3977C57.4635 21.3971 57.7171 21.3804 57.8643 21.3609C58.0431 21.337 58.2419 21.3394 58.4616 21.3682C58.7407 21.4048 58.8291 21.4017 59.0429 21.3476C59.1814 21.3125 59.3197 21.2936 59.3499 21.3052C59.3741 21.2332 59.6226 21.2812 59.6541 21.2988C59.7226 21.2827 59.813 21.2662 59.8552 21.2622C59.8973 21.2582 59.9589 21.2434 59.9921 21.2292C60.0253 21.215 60.0943 21.2176 60.1454 21.2347C60.2295 21.2631 60.3222 21.2676 60.372 21.2455C60.4202 21.2241 60.7014 21.2188 60.7351 21.2385C60.8186 21.2876 60.9278 21.2674 60.9891 21.1914C61.0504 21.1152 61.0576 21.1145 61.1261 21.1769C61.1792 21.2251 61.2362 21.2367 61.3387 21.2199C61.4158 21.2073 61.5098 21.209 61.7235 21.2806C61.8214 21.318 61.8362 21.3116 61.8957 21.2059C61.9315 21.1423 61.9867 21.0944 62.0182 21.0993C62.1866 21.0542 62.4161 21.1648 62.4975 21.0645C62.5392 21.007 62.5603 21.0045 62.6521 21.0466C62.7459 21.0896 62.7677 21.086 62.8307 20.9371C62.7296 20.9371 62.7283 20.9285 62.804 20.7812C62.8739 20.6454 62.8951 20.6427 63.0328 20.7516L63.1387 20.8354L63.301 20.7487C63.3903 20.7011 63.4957 20.6678 63.7012 20.5138C63.7982 20.5138 63.8256 20.4169 63.748 20.3492C63.6703 20.2813 63.6018 20.3 63.4677 20.4254L63.3668 20.5199L63.2635 20.3839C63.1519 20.2366 63.1476 20.1181 63.2533 20.0976C63.5281 20.3218 63.8962 20.1476 63.6499 20.0031C63.5342 20.0253 63.4836 19.9477 63.5624 19.8687C63.9508 19.7083 63.9508 20.2493 64.0632 20.1908C64.1555 20.2262 64.1408 20.0556 64.0424 19.9505C63.9517 19.8534 63.9689 19.7437 64.0749 19.7442C64.1507 19.7445 64.2942 19.941 64.3286 20.0918C64.3413 20.1469 64.326 20.2382 64.2937 20.3006C64.2107 20.4616 64.3055 20.5118 64.3995 20.3565C64.4555 20.2639 64.4859 20.2473 64.5639 20.2669C64.6354 20.285 64.6598 20.2759 64.6598 20.2314C64.6598 20.1346 64.7169 20.1265 64.8747 20.2009C65.0394 20.2784 65.1488 20.2822 65.349 20.2175C65.508 20.1661 65.6195 20.1648 65.6807 20.2131C65.7108 20.2368 65.7333 20.2233 65.7495 20.1719C65.774 20.0946 66.05 19.9364 66.1606 19.9364C66.1982 19.9364 66.2271 19.8931 66.2377 19.8213C66.256 19.6951 66.1434 19.5515 66.026 19.5515C65.9303 19.5515 65.7911 19.3995 66.111 19.3741C66.0829 19.34 66.0593 19.2577 66.0586 19.1912C66.0514 19.0376 65.7077 18.9252 65.6935 18.9411C65.6935 18.8911 65.7995 18.8102 65.8356 18.8325C65.8524 18.8431 65.9335 18.8186 66.0157 18.7784C66.1635 18.7062 66.1659 18.7062 66.4305 18.6657C66.5596 18.6648 66.6122 18.6161 66.5873 18.5206C66.5441 18.4046 66.1655 18.6215 66.1954 18.4126C66.1901 18.3592 65.9722 18.3707 65.9157 18.4274C65.8871 18.4562 65.8504 18.458 65.8039 18.4329C65.7659 18.4124 65.6816 18.3895 65.6169 18.3819C65.3057 18.2029 65.0234 18.2029 65.0004 18.1532C64.9396 18.1654 64.8681 18.1576 64.8418 18.1358C64.7698 18.0763 64.5069 18.3607 64.5583 18.4424C64.6013 18.5111 64.5675 18.6278 64.5046 18.6278C64.2396 18.4732 64.2396 18.2766 64.1296 18.2886C63.9907 18.2996 63.9401 18.2775 63.9134 18.1948C63.8979 18.1471 63.8815 18.0995 63.8768 18.0888C63.8464 18.0195 63.8211 17.9416 63.802 17.8579C63.7635 17.6894 63.7227 17.652 63.631 17.7014C63.5448 17.7478 63.5214 17.8744 63.6298 18.1104C63.6843 18.1442 63.6723 18.4354 63.6165 18.4348C63.5902 18.4346 63.4841 18.3372 63.3805 18.2185C63.2132 18.0269 63.1976 17.9942 63.2403 17.9255C63.1777 17.543 62.7238 17.9951 62.6448 17.7868C62.7254 17.6972 62.7238 17.6822 62.6249 17.5826C62.4057 17.4506 62.4424 17.8892 62.4086 17.8195C62.4499 17.8195 62.475 17.8655 62.4872 17.9639C62.5045 18.1026 62.4663 18.2044 62.3969 18.2044C62.3565 18.2044 62.2479 17.9515 62.2479 17.8573C62.2479 17.8117 62.2195 17.7898 62.1618 17.7912C62.1144 17.7924 62.0456 17.7801 62.0087 17.7638C61.9114 17.7209 61.9191 17.9084 62.0965 18.2846C62.1308 18.3488 62.1256 18.3799 62.0705 18.441C62.0099 18.5082 61.9966 18.5103 61.959 18.4586C61.9355 18.4264 61.8692 18.3818 61.8117 18.36C61.6964 18.3158 61.7131 18.2259 61.8296 18.263C62.0206 18.3239 61.9988 18.1249 61.8042 18.0321C61.718 17.9909 61.6669 17.9351 61.6522 17.866C61.64 17.8087 61.6135 17.7207 61.5933 17.6707C61.573 17.6207 61.5652 17.5514 61.5759 17.5167C61.6918 17.2387 61.1771 17.5312 61.2603 17.5343C61.2425 17.6589 61.0119 17.6556 60.9298 17.5295C60.8958 17.4772 60.8455 17.4346 60.8181 17.4346C60.7352 17.4346 60.597 17.2607 60.5126 17.07C60.463 17.0201 60.444 17.023 60.1767 17.0929C60.0926 17.0021 60.0258 16.9898 59.9625 17.0535C59.9118 17.1042 59.7594 17.0632 59.7597 16.999C59.7598 16.9739 59.786 16.9033 59.8178 16.8418C59.8496 16.7805 59.871 16.7273 59.8655 16.7233C59.6841 16.5989 59.6662 16.5924 59.618 16.6324C59.6502 16.7496 59.4776 16.9192 59.568 16.9527C59.568 16.9906 59.5218 17.0019 59.4006 16.9937C59.2501 16.9834 59.2351 16.99 59.0883 17.1564C59.0274 17.2364 58.8407 17.1521 58.8407 17.0447C58.8541 16.9475 58.5232 17.1495 58.601 17.1159C58.6097 17.1605 58.4668 17.2639 58.4374 17.2344C58.4157 17.2127 58.5028 16.8822 58.5443 16.8288C58.5698 16.7959 58.5622 16.7737 58.5195 16.7574C58.4357 16.725 58.3465 16.7641 58.3158 16.8467C58.1277 17.2971 57.9735 16.9432 57.9347 16.9092C57.803 17.1598 57.8683 17.4205 58.282 17.4113C58.3788 17.374 58.4513 17.4632 58.4837 17.6591C58.5259 17.9148 58.5276 17.91 58.2332 17.7649C58.1832 17.7339 58.0558 17.8937 58.0558 17.9874C58.0558 18.0543 58.0318 18.0703 57.9273 18.0735C57.8047 18.0772 57.7227 17.9998 57.6377 17.8002C57.6109 17.7371 57.5403 17.8688 57.3724 18.1113C57.3298 18.1277 57.3015 18.0914 57.2674 17.9766C57.218 17.8108 57.1972 17.7935 57.1298 17.8613C57.1511 17.6901 56.9902 17.61 56.7819 17.8897C56.7178 17.8252 56.5835 17.9523 56.6097 18.0526C56.6334 18.1436 56.5522 18.1523 56.4456 18.07C56.3737 18.0145 56.376 18.0082 56.5142 17.8776C56.593 17.8033 56.6393 17.7424 56.6176 17.7424C56.5957 17.7424 56.5199 17.6961 56.4494 17.6395C56.3385 17.5507 56.3258 17.5236 56.4543 17.2036C56.5598 17.2036 56.5702 17.1264 56.4829 16.9923C56.4577 16.7947 56.383 16.8163 56.3521 16.8891C56.3521 16.9537 56.1753 17.1584 56.1385 17.1363C56.0808 17.1018 56.0459 17.1429 56.0459 17.2454C56.0459 17.4011 55.9803 17.3775 55.8424 17.1718C55.7831 17.0834 55.7055 17.0106 55.67 17.01C55.6347 17.0094 55.5761 16.968 55.5402 16.9181C55.4856 16.8426 55.4824 16.8112 55.5211 16.7289C55.5465 16.6746 55.6018 16.6197 55.6439 16.607C55.7178 16.5847 55.7173 16.5826 55.6344 16.5486C55.5761 16.5248 55.5482 16.4809 55.5482 16.4133C55.5482 16.3272 55.5362 16.3169 55.462 16.3402C55.3671 16.37 55.3217 16.4231 55.3158 16.5108C55.3016 16.7295 55.2519 16.8958 55.1254 16.839C55.0681 16.8747 54.9739 16.7843 54.9739 16.6939C54.9739 16.6298 54.9835 16.6249 55.0314 16.6649C55.0799 16.7052 55.0985 16.6893 55.1514 16.5636C55.1858 16.4816 55.2161 16.3714 55.2184 16.3183C55.2227 16.2229 55.2771 16.2044 55.4333 16.2455C55.4741 16.2562 55.4854 16.2383 55.4723 16.1837C55.4622 16.1414 55.4535 16.0158 55.4532 15.9046C55.4527 15.7934 55.4422 15.7026 55.4298 15.7026C55.3721 15.7026 55.2802 15.8537 55.2802 15.9484C55.2817 15.7424 54.9852 15.7424 54.859 15.8711C54.859 16.016 54.8463 16.049 54.791 16.049C54.7535 16.049 54.6928 16.0135 54.4363 16.0883C54.3592 16.1299 54.3594 16.1317 54.4567 16.248C54.5305 16.3362 54.5447 16.3781 54.5134 16.4159C54.4813 16.4547 54.4921 16.4693 54.5602 16.479C54.6125 16.4865 54.6734 16.4616 54.7093 16.4182C54.7429 16.3775 54.7901 16.357 54.8148 16.3724C54.8732 16.4087 54.6353 16.7016 54.3907 16.7499C54.34 16.7078 54.3144 16.7207 54.221 16.8346C54.1422 16.9307 54.0956 16.9593 54.0567 16.9352C54.0131 16.9082 54.0119 16.8904 54.0505 16.8436C54.089 16.7968 54.0859 16.762 54.0346 16.6619C53.8958 16.3723 53.8949 16.9143 53.8619 16.839C53.8101 16.8713 53.4459 16.7849 53.3479 16.717C53.3063 16.6883 53.2408 16.6649 53.1226 16.5878C53.0168 16.5878 52.9449 16.6343 52.9449 16.7029C52.9449 16.7468 52.9074 16.7785 52.8397 16.7915C52.7218 16.8141 52.6673 16.7592 52.7007 16.6514C52.7182 16.5948 52.7077 16.585 52.6496 16.6035C52.5997 16.6194 52.5497 16.596 52.4928 16.5304C52.4469 16.4774 52.392 16.4338 52.3709 16.4338C52.339 16.4338 52.3117 16.6075 52.3273 16.7118C52.3324 16.7445 52.1796 16.8322 52.1571 16.8095C52.1487 16.801 52.1359 16.7399 52.1287 16.6737C52.1215 16.6077 52.0935 16.5269 52.0664 16.4942C52.0259 16.4449 52.0281 16.4307 52.0791 16.411C52.1908 16.3679 52.1438 16.2975 51.9686 16.2455C51.7797 16.1895 51.7561 16.1502 51.8733 16.0872C51.9302 16.0566 51.9441 16.0218 51.9271 15.9532C51.8971 15.8335 52.0007 15.6833 52.1131 15.6833C52.2247 15.6319 52.2529 15.4652 52.2779 15.6064C52.2838 15.7532 52.2943 15.7769 52.3454 15.7573C52.3735 15.7465 52.4185 15.7639 52.4451 15.7962C52.5014 15.8645 52.6219 15.8181 52.7092 15.6945C52.7375 15.6544 52.7805 15.6286 52.8048 15.6371C52.8293 15.6455 52.8999 15.6102 52.9619 15.5582C53.0506 15.4842 53.1029 15.4686 53.2066 15.4854C53.2791 15.4974 53.3694 15.4903 53.4074 15.47C53.4923 15.4242 53.5088 15.4495 53.5329 15.6618C53.5557 15.8607 53.6166 15.9118 53.7293 15.8263C53.8128 15.763 53.8273 15.6836 53.7718 15.5934C53.7516 15.5604 53.7658 15.5368 53.8139 15.5243C53.9228 15.4957 53.9738 15.3908 53.7241 15.2397C53.6432 15.2114 53.5767 15.2114 53.5023 15.2398C53.4146 15.2733 53.3727 15.2658 53.2607 15.1962C53.1382 15.1201 53.1092 15.1165 52.9542 15.1583C52.8515 15.1858 52.7655 15.1904 52.7395 15.1698C52.7156 15.1508 52.584 15.1237 52.4473 15.1098C52.095 15.0739 51.8228 15.0177 51.478 14.9102C51.203 14.8244 51.1738 14.8218 51.1172 14.8789C51.0662 14.93 51.0638 14.9541 51.1031 15.0174C51.1669 15.1199 51.1459 15.1323 50.9592 15.1023C50.8479 15.0844 50.8009 15.058 50.8009 15.0133C50.8009 14.9784 50.7651 14.919 50.7212 14.8812C50.6773 14.8434 50.6507 14.7882 50.662 14.7585C50.6876 14.6915 50.5001 14.5513 50.3972 14.5605C50.3476 14.5649 50.3242 14.5447 50.3276 14.5004C50.3309 14.4566 50.2217 14.3594 50.0104 14.2179C49.8244 14.0936 49.4896 13.8041 49.2194 13.5341C48.8099 13.1249 48.6448 12.9167 48.3296 12.4117C48.2056 12.2129 47.9279 11.6636 47.7968 11.3577C47.7277 11.1965 47.557 10.8251 47.4175 10.5323C47.2781 10.2396 47.164 9.97657 47.0886 9.7825C47.0906 9.6808 47.1834 9.81905 47.3553 10.1792C47.436 10.3487 47.6572 10.8131 47.8468 11.2115C48.4466 12.4725 48.697 12.8638 49.2677 13.4317C50.1626 14.3222 51.2435 14.8524 52.4034 14.9697C52.6603 14.9956 54.9823 15.0098 59 15.0098C63.1528 15.0098 65.1925 15.0225 65.1764 15.0485C65.1634 15.0697 65.1754 15.0944 65.2029 15.1031C65.2748 15.1257 71.2534 15.1609 79.0164 15.1841C84.9718 15.202 86.5246 15.2248 87.0753 15.3019C87.1384 15.3106 87.3192 15.3253 87.4772 15.3345C88.1844 15.3752 89.6304 15.9607 90.8288 16.6918C92.7019 17.8345 94.1054 19.4431 95.0008 21.4736C95.7473 23.1663 96.0947 25.339 95.9767 27.5766C95.8387 30.1922 95.179 32.3053 93.8914 34.2546C92.6623 36.1155 91.0004 37.6103 89.1425 38.5258C88.2244 38.9783 87.379 39.2449 86.3862 39.395C85.9512 39.4608 85.2587 39.4649 73.427 39.4726C66.5521 39.4772 58.7989 39.4922 56.198 39.5064C53.5969 39.5205 51.4585 39.5215 51.4458 39.5088Z" fill="#5296C5" stroke="#5296C5" stroke-width="0.361786"/>
<path d="M17.6066 39.4862C15.5519 39.3675 13.7039 38.9832 11.8622 38.2912C9.50597 37.4058 7.63864 36.314 6.06662 34.9026C3.65102 32.7337 1.90115 30.0466 0.919462 26.9983C0.402849 25.3943 0.142095 23.9791 0.0367234 22.2073C-0.0123686 21.3815 -0.0122152 18.7799 0.0370297 17.992C0.267502 14.3066 1.12271 11.5397 2.86219 8.85143C4.34703 6.55695 6.15059 4.7852 8.71239 3.10522C9.44969 2.62164 10.4698 2.04569 10.5127 2.08882C10.4655 2.11191 10.1948 2.30996 10.3102 2.26959C10.3174 2.26959 10.5802 2.15075 10.894 2.00547C11.208 1.86003 11.5034 1.72896 11.5509 1.71413C11.5297 1.89673 11.908 1.97121 11.8508 2.01189C11.8737 2.00791 12.0198 1.9943 12.1754 1.98176C12.3657 1.96647 12.4688 1.94062 12.4899 1.9027C12.5365 1.81904 12.7366 1.83128 12.7841 1.92059C12.8058 1.96142 12.8624 2.00042 12.9098 2.00715C12.9716 2.01602 12.9995 2.04951 13.0082 2.12537C13.0147 2.18348 13.028 2.2312 13.0374 2.2312C13.0628 2.2312 13.2169 2.14188 13.2851 2.0879C13.3596 2.02871 13.5749 2.08224 13.7179 2.19526C13.7944 2.25567 13.8478 2.26775 13.9521 2.24802C14.3026 2.25353 13.8332 2.46014 14.0059 2.50052C14.0831 2.50052 14.1777 2.58922 14.1403 2.62669C14.128 2.63923 14.1618 2.69734 14.2156 2.75576C14.3127 2.86098 14.3142 2.86129 14.3947 2.78803C14.4748 2.71524 14.4766 2.71524 14.54 2.7943C14.5751 2.83835 14.6342 2.88499 14.671 2.89799C14.7108 2.91191 14.738 2.96085 14.738 3.01805C14.738 3.11699 14.8871 3.24928 15 3.25051C14.9272 3.45299 15.1971 3.62458 15.2147 3.61678C15.3013 3.61678 15.4005 3.76865 15.4092 3.9147C15.4161 4.02833 15.4412 4.07192 15.5278 4.12132C15.696 4.19992 15.8754 4.52032 16.0629 4.51833C16.0919 4.5945 16.0113 4.73305 15.8862 4.63548C15.7462 4.6783 15.733 4.70109 15.7584 4.85769C16.0721 4.89256 15.9622 5.27322 16.1566 5.32889C16.2522 5.29845 16.2865 5.37553 16.2212 5.47433C16.2403 6.21071 16.2377 6.21071 16.2502 6.27264C16.1728 6.27264 16.123 6.3589 16.1052 6.5233C16.0861 6.70055 16.0165 6.89111 15.9734 6.88408C15.8791 6.86863 15.8531 6.89738 15.8662 7.00275C15.8742 7.06576 15.8916 7.13504 15.9051 7.15676C15.9428 7.21839 16.0751 7.2034 16.1869 7.12495C16.2427 7.08564 16.3143 7.05139 16.346 7.04879C16.4201 7.04267 17.0224 6.93531 17.1594 6.90365C17.222 6.88928 17.2648 6.89555 17.2648 6.91925C17.2648 7.00811 17.2146 7.0809 17.1533 7.0809C17.0472 7.0809 16.049 7.33523 15.6371 7.46737C12.6304 8.43147 10.1786 10.2774 8.61008 12.7581C8.27087 13.2945 7.73789 14.3667 7.54795 14.8943C7.20782 15.8393 6.99815 16.7214 6.84323 17.8587C6.76569 18.4274 6.75682 18.6502 6.75621 20.0133C6.75575 21.576 6.7767 21.9143 6.93162 22.8385C7.26181 24.8088 8.08888 26.6262 9.42231 28.3116C11.0607 30.3822 13.4379 31.8607 16.0617 32.4413C17.2897 32.713 16.7251 32.6957 24.3665 32.6957C28.1566 32.6957 34.1391 32.68 37.6609 32.6609L44.0641 32.626L44.0412 32.7571C43.9993 32.9958 43.7634 33.8839 43.6588 34.1968C43.6023 34.3661 43.4729 34.7001 43.3712 34.9388C42.3997 37.2205 40.3409 38.9555 38.0706 39.4061C37.5561 39.5082 37.2108 39.5423 37.2108 39.4911C37.2108 39.4363 33.0524 39.4343 33.0187 39.4891C32.9903 39.5353 18.4086 39.5325 17.6066 39.4862Z" fill="#5296C5" stroke="#5296C5" stroke-width="0.361786"/>
<path d="M52.9078 21.639C52.7087 21.6302 52.6386 21.615 52.6781 21.5897C52.7755 21.5266 52.6588 21.4875 52.287 21.4583C51.9907 21.4349 51.9338 21.4404 51.8703 21.498C51.8039 21.5585 51.7905 21.5592 51.7299 21.5055C51.6931 21.473 51.6025 21.4363 51.529 21.4239C51.4552 21.4113 51.326 21.3901 51.2417 21.3763C51.1575 21.3627 51.0689 21.3356 51.0449 21.3162C51.0209 21.2969 50.9348 21.2728 50.8534 21.2625C50.6984 21.2431 50.3385 21.1494 50.2081 21.0945C50.166 21.0767 49.9592 21.0149 49.7486 20.9573C49.5381 20.8995 49.3142 20.8291 49.251 20.8007C49.1878 20.7724 49.0586 20.7292 48.9638 20.7048C48.8691 20.6803 48.6642 20.6014 48.5087 20.5294C48.353 20.4572 48.2045 20.3983 48.1785 20.3983C48.0396 20.3983 47.0435 19.8958 46.5659 19.5847C46.2099 19.3528 46.142 19.2946 46.3745 19.2213C46.3352 19.2086 46.265 19.1797 46.2183 19.1574C46.1558 19.1273 46.1181 19.1292 46.0755 19.1649C46.027 19.2054 45.9684 19.1719 45.7122 18.957C44.8136 18.2035 43.9267 17.0051 43.2558 15.6381C43.0347 15.1872 42.9567 14.9904 42.973 14.9248C42.9856 14.8741 42.9695 14.7836 42.9363 14.7198C42.9038 14.657 42.877 14.5853 42.8768 14.5603C42.8768 14.5354 42.8359 14.4828 42.7862 14.4433C42.7363 14.404 42.6487 14.2685 42.5912 14.1422C42.0438 12.9383 41.7211 12.3767 41.1007 11.5478C40.6146 10.8988 39.3477 9.64287 39.2035 9.6675C39.1685 9.67346 39.0289 9.59072 38.8931 9.48352C37.7265 8.56285 36.1953 7.75673 34.8868 7.3744C34.0768 7.13781 33.2247 6.98961 32.0997 6.8899C30.8805 6.78178 29.9124 6.76786 24.5577 6.78116C18.6737 6.79585 18.8149 6.79172 17.6856 6.9861C17.2482 7.06149 17.2288 7.06027 17.255 6.95979C17.2742 6.88562 17.2651 6.87981 17.1652 6.90259C17.0213 6.93547 16.4204 7.04268 16.3458 7.0488C16.3141 7.0514 16.2425 7.08566 16.1867 7.12496C16.0749 7.20342 15.9426 7.2184 15.9049 7.15677C15.8914 7.13505 15.874 7.06577 15.866 7.00277C15.8529 6.89739 15.8789 6.86864 15.9732 6.88409C16.0164 6.89112 16.0859 6.70057 16.1051 6.52332C16.1228 6.35891 16.1726 6.27266 16.25 6.27266C16.3756 5.6207 16.1515 5.6207 16.221 5.47434C16.2863 5.37554 16.252 5.29846 16.1564 5.3289C15.8749 5.27032 16.017 4.81382 15.7582 4.85771C15.7328 4.7011 15.746 4.67832 15.9377 4.73307C16.0112 4.73307 16.0917 4.59451 16.0627 4.51835C15.8445 4.47965 15.5782 4.18021 15.5276 4.12133C15.441 4.07193 15.4159 4.02834 15.409 3.91471C15.4003 3.76866 15.3011 3.6168 15.2145 3.6168C15.1302 3.62215 14.9481 3.34519 14.9998 3.25052C14.8869 3.2493 14.7378 3.11701 14.7378 3.01806C14.7378 2.96086 14.7106 2.91192 14.6708 2.89801C14.634 2.88501 14.5749 2.83836 14.5398 2.79432C14.4765 2.71525 14.4746 2.71525 14.3945 2.78805C14.314 2.8613 14.3125 2.861 14.2154 2.75578C14.1616 2.69736 14.1278 2.63924 14.1402 2.6267C14.1784 2.58831 14.0822 2.50053 14.0016 2.50053C13.8227 2.38919 14.1486 2.28413 13.9519 2.24803C13.8476 2.26776 13.7942 2.25568 13.7177 2.19527C13.5748 2.08225 13.3594 2.02873 13.2849 2.08791C13.2167 2.1419 13.0626 2.23121 13.0372 2.23121C13.0279 2.23121 13.0146 2.1835 13.008 2.12538C12.9993 2.04953 12.9714 2.01603 12.9096 2.00716C12.8622 2.00043 12.8056 1.96144 12.7839 1.9206C12.7364 1.83129 12.5363 1.81905 12.4897 1.90271C12.4686 1.94064 12.3655 1.96648 12.1752 1.98177C12.0196 1.99432 11.8735 2.00793 11.8506 2.0119C11.8998 1.93666 11.4919 1.84306 11.5507 1.71414C11.5033 1.72897 11.2078 1.86004 10.8938 2.00548C10.58 2.15077 10.3172 2.2696 10.5003 2.09801C10.5771 2.02077 10.8736 1.87717 11.6149 1.5583C13.2329 0.861989 14.9019 0.419397 16.8434 0.171796C17.2644 0.118116 18.0996 0.111234 23.7856 0.113987C28.2465 0.116281 30.2415 0.104811 30.2247 0.0772824C30.168 -0.01509 32.8199 0.0523543 32.8814 0.14488C32.8936 0.163232 33.0588 0.199783 33.2482 0.225935C34.1707 0.35287 35.6238 0.706761 36.8194 1.09567C37.1192 1.19325 37.3842 1.26069 37.4084 1.2457C37.3715 1.25488 37.5286 1.3237 37.5338 1.31101C37.5105 1.34893 37.5183 1.35169 37.6892 1.36728C37.9358 1.38992 39.263 2.0038 40.1098 2.48722C42.0479 3.5934 44.0951 5.33395 45.4224 7.00384C46.0687 7.81699 47.1121 9.53811 47.1645 9.94767C47.1645 9.97658 47.2786 10.2396 47.4181 10.5323C47.5576 10.8251 47.7282 11.1965 47.7974 11.3577C47.9284 11.6636 48.2062 12.2129 48.3302 12.4118C48.6454 12.9167 48.8104 13.1249 49.22 13.5341C49.4902 13.8041 49.825 14.0936 50.0109 14.2179C50.2223 14.3594 50.3315 14.4566 50.3281 14.5004C50.3247 14.5447 50.3481 14.5649 50.3977 14.5605C50.5006 14.5513 50.6881 14.6915 50.6626 14.7585C50.6513 14.7882 50.6779 14.8434 50.7218 14.8812C50.7657 14.919 50.8014 14.9785 50.8014 15.0133C50.8014 15.058 50.8484 15.0844 50.9597 15.1023C51.1465 15.1323 51.1674 15.1199 51.1036 15.0174C51.0643 14.9541 51.0668 14.93 51.1177 14.8789C51.1743 14.8218 51.2035 14.8244 51.4785 14.9102C51.8234 15.0178 52.0956 15.0739 52.4478 15.1098C52.5845 15.1237 52.7162 15.1508 52.74 15.1698C52.766 15.1904 52.852 15.1858 52.9548 15.1583C53.1094 15.1166 53.1389 15.1202 53.2602 15.1955C53.3714 15.2646 53.4137 15.2721 53.5079 15.2391C53.5873 15.2112 53.6544 15.2117 53.9335 15.2796C53.9744 15.3908 53.9233 15.4957 53.8144 15.5243C53.7664 15.5368 53.7522 15.5604 53.7724 15.5934C53.8279 15.6836 53.8133 15.763 53.7298 15.8263C53.6171 15.9118 53.5563 15.8607 53.5335 15.6618C53.5093 15.4495 53.4928 15.4243 53.4079 15.47C53.37 15.4903 53.2796 15.4974 53.2071 15.4854C53.1034 15.4686 53.0511 15.4842 52.9624 15.5582C52.9005 15.6102 52.8298 15.6456 52.8053 15.6371C52.781 15.6286 52.7381 15.6544 52.7098 15.6945C52.6224 15.8181 52.5019 15.8646 52.4456 15.7962C52.419 15.7639 52.3741 15.7465 52.3459 15.7573C52.2948 15.7769 52.2843 15.7532 52.2785 15.6064C52.2474 15.3753 52.1679 15.7219 52.1136 15.6833C52.0012 15.6833 51.8977 15.8335 51.9277 15.9533C51.9446 16.0218 51.9307 16.0566 51.8738 16.0872C51.7567 16.1502 51.7802 16.1895 51.9691 16.2455C52.1444 16.2975 52.1913 16.3679 52.0797 16.411C52.0286 16.4307 52.0265 16.4449 52.067 16.4942C52.094 16.5269 52.122 16.6077 52.1292 16.6737C52.1364 16.74 52.1493 16.801 52.1577 16.8095C52.1802 16.8322 52.3329 16.7445 52.3279 16.7118C52.3123 16.6075 52.3395 16.4338 52.3715 16.4338C52.3926 16.4338 52.4475 16.4774 52.4934 16.5304C52.5502 16.596 52.6003 16.6194 52.6501 16.6035C52.7082 16.585 52.7188 16.5948 52.7012 16.6514C52.6679 16.7592 52.7223 16.8141 52.8402 16.7915C52.908 16.7785 52.9454 16.7468 52.9454 16.7029C52.9454 16.6343 53.0173 16.5878 53.2027 16.6649C53.2414 16.6649 53.3068 16.6883 53.3484 16.717C53.4464 16.7849 53.8106 16.8713 53.8624 16.8391C53.8968 16.7999 53.9641 16.4671 54.0351 16.662C54.0865 16.762 54.0895 16.7968 54.051 16.8436C54.0125 16.8904 54.0137 16.9082 54.0573 16.9352C54.0961 16.9593 54.1428 16.9307 54.2215 16.8346C54.315 16.7207 54.3405 16.7078 54.547 16.7026C54.6358 16.7016 54.8738 16.4087 54.8154 16.3724C54.7906 16.357 54.7435 16.3775 54.7098 16.4182C54.6739 16.4616 54.613 16.4865 54.5607 16.479C54.4927 16.4693 54.4818 16.4547 54.5139 16.4159C54.5453 16.3781 54.5311 16.3362 54.4572 16.248C54.3599 16.1317 54.3598 16.1299 54.6566 15.9704C54.6933 16.0135 54.754 16.049 54.7915 16.049C54.8469 16.049 54.8596 16.016 54.8596 15.8711C55.0354 15.5042 55.2934 16.1216 55.2807 15.9418C55.2807 15.849 55.3763 15.7026 55.4369 15.7026C55.4458 15.7026 55.4533 15.7934 55.4537 15.9046C55.454 16.0158 55.4627 16.1414 55.4728 16.1837C55.486 16.2383 55.4747 16.2562 55.4338 16.2455C55.2777 16.2044 55.2232 16.2229 55.219 16.3183C55.2167 16.3714 55.1864 16.4816 55.152 16.5636C55.0991 16.6893 55.0804 16.7052 55.0319 16.6649C54.984 16.6249 54.9744 16.6298 54.9744 16.6939C54.9744 16.7843 55.0686 16.8747 55.2017 16.8958C55.2524 16.8958 55.3022 16.7295 55.3164 16.5109C55.3222 16.4231 55.3676 16.37 55.4626 16.3402C55.5368 16.3169 55.5487 16.3272 55.5487 16.4133C55.5487 16.4809 55.5767 16.5248 55.6349 16.5486C55.7178 16.5826 55.7183 16.5847 55.6444 16.607C55.6024 16.6197 55.547 16.6746 55.5216 16.7289C55.4829 16.8112 55.4861 16.8426 55.5407 16.9181C55.5767 16.968 55.6352 17.0094 55.6706 17.01C55.7061 17.0106 55.7836 17.0834 55.8429 17.1718C55.9809 17.3775 56.0465 17.4011 56.0465 17.2454C56.0465 17.1429 56.0814 17.1018 56.139 17.1364C56.1759 17.1584 56.3527 16.9538 56.3527 16.8891C56.4213 16.7133 56.4683 16.9293 56.4834 16.9923C56.5707 17.1264 56.5603 17.2036 56.3571 17.4424C56.3264 17.5236 56.339 17.5507 56.4499 17.6395C56.5204 17.6961 56.5963 17.7424 56.6182 17.7424C56.6399 17.7424 56.5935 17.8033 56.5148 17.8776C56.3765 18.0082 56.3742 18.0145 56.4461 18.07C56.5527 18.1523 56.6339 18.1436 56.6102 18.0526C56.584 17.9523 56.7183 17.8252 56.7824 17.8897C57.0663 17.5179 57.0662 17.746 57.1355 17.8613C57.1825 17.7848 57.2206 17.818 57.268 17.9766C57.3021 18.0914 57.3304 18.1277 57.54 17.983C57.5408 17.8688 57.6115 17.7371 57.6382 17.8002C57.7233 17.9998 57.8052 18.0772 57.9279 18.0735C58.0323 18.0703 58.0563 18.0543 58.0563 17.9874C58.0563 17.8937 58.1837 17.7339 58.3913 17.9382C58.5282 17.9101 58.5265 17.9148 58.4843 17.6591C58.4518 17.4632 58.3793 17.374 58.0969 17.5549C57.8689 17.4205 57.8036 17.1598 57.9352 16.9093C58.2215 16.9591 58.2215 17.1815 58.3163 16.8467C58.3471 16.7641 58.4362 16.725 58.52 16.7574C58.5627 16.7737 58.5704 16.7959 58.5448 16.8288C58.5034 16.8822 58.4162 17.2127 58.4379 17.2344C58.4673 17.2639 58.6103 17.1605 58.6016 17.1159C58.5359 17.1136 58.9001 16.9749 58.8412 17.0447C58.8412 17.1521 59.0279 17.2364 59.2535 17.0584C59.2356 16.99 59.2506 16.9834 59.4011 16.9937C59.5224 17.0019 59.5686 16.9906 59.5686 16.9527C59.4297 16.8799 59.6782 16.6895 59.6186 16.6324C59.6668 16.5924 59.6846 16.5989 59.866 16.7233C59.8715 16.7273 59.8501 16.7805 59.8183 16.8418C59.7865 16.9033 59.7603 16.9739 59.7602 16.999C59.7599 17.0633 59.9124 17.1042 59.963 17.0535C60.0263 16.9898 60.0931 17.0021 60.3548 17.094C60.4446 17.023 60.4635 17.0201 60.6244 17.1903C60.5975 17.2607 60.7358 17.4346 60.8187 17.4346C60.846 17.4346 60.8963 17.4772 60.9303 17.5296C61.0124 17.6556 61.243 17.6589 61.2608 17.5343C61.1716 17.4408 61.6956 17.3785 61.5764 17.5167C61.5657 17.5514 61.5735 17.6207 61.5939 17.6707C61.6141 17.7207 61.6405 17.8087 61.6528 17.866C61.6674 17.9351 61.7185 17.991 61.8048 18.0321C61.9993 18.1249 62.0212 18.3239 61.8302 18.263C61.7136 18.2259 61.697 18.3158 61.8123 18.36C61.8698 18.3819 61.936 18.4264 61.9595 18.4586C61.9972 18.5103 62.0105 18.5082 62.071 18.441C62.1261 18.3799 62.1313 18.3488 62.0219 18.0748C61.9196 17.9084 61.912 17.7209 62.0092 17.7638C62.0461 17.7801 62.1149 17.7924 62.1623 17.7912C62.22 17.7898 62.2484 17.8117 62.2484 17.8573C62.2484 17.9515 62.357 18.2045 62.3974 18.2045C62.4668 18.2045 62.5051 18.1026 62.4878 17.9639C62.4755 17.8655 62.4505 17.8195 62.4092 17.8195C62.4927 17.8311 62.4927 17.487 62.6254 17.5826C62.7244 17.6822 62.7259 17.6972 62.6453 17.7868C63.2283 18.0295 63.2283 17.6579 63.2408 17.9255C63.1982 17.9942 63.2138 18.0269 63.3811 18.2185C63.4846 18.3372 63.5907 18.4346 63.617 18.4348C63.6729 18.4354 63.6848 18.1442 63.5918 17.9179C63.5219 17.8744 63.5453 17.7478 63.6316 17.7014C63.7232 17.6521 63.764 17.6894 63.8026 17.8579C63.8217 17.9416 63.8469 18.0196 63.8773 18.0888C63.8821 18.0995 63.8984 18.1471 63.9139 18.1948C63.9407 18.2776 63.9913 18.2996 64.1301 18.2886C64.4189 18.278 64.4189 18.5669 64.5051 18.6278C64.568 18.6278 64.6018 18.5111 64.5588 18.4424C64.5074 18.3608 64.7703 18.0763 64.8424 18.1358C64.8687 18.1577 64.9401 18.1655 65.001 18.1532C65.0988 18.3799 65.4032 18.4285 65.6174 18.3819C65.6821 18.3895 65.7664 18.4124 65.8045 18.4329C65.851 18.458 65.8877 18.4562 65.9163 18.4274C65.9727 18.3707 66.1906 18.3592 66.196 18.4126C66.1175 18.4779 66.6453 18.4779 66.5878 18.5206C66.6127 18.6161 66.5601 18.6648 66.2192 18.7821C66.1665 18.7062 66.164 18.7062 66.0163 18.7784C65.934 18.8186 65.853 18.8431 65.8361 18.8326C65.8 18.8102 65.694 18.8911 65.694 18.9411C65.7724 18.8884 66.0773 19.1436 66.0591 19.1912C66.0599 19.2577 66.0834 19.34 65.8413 19.3495C65.7916 19.3995 65.9308 19.5515 66.0265 19.5515C66.144 19.5515 66.2565 19.6951 66.2382 19.8213C66.2276 19.8932 66.1987 19.9364 66.1611 19.9364C66.0505 19.9364 65.7745 20.0946 65.75 20.172C65.7338 20.2233 65.7113 20.2368 65.6812 20.2131C65.62 20.1648 65.5085 20.1661 65.3495 20.2175C65.1493 20.2822 65.0399 20.2784 64.8752 20.2009C64.7174 20.1265 64.6604 20.1346 64.6604 20.2314C64.6604 20.2759 64.6359 20.285 64.5645 20.2669C64.4865 20.2473 64.456 20.2639 64.4001 20.3565C64.306 20.5118 64.2112 20.4616 64.2942 20.3006C64.3265 20.2382 64.3418 20.1469 64.3291 20.0918C64.2947 19.941 64.1512 19.7445 64.0754 19.7442C63.9694 19.7437 63.9523 19.8534 64.043 19.9505C64.1413 20.0556 64.156 20.2262 64.0638 20.1908C63.9303 20.2203 63.7009 19.7272 63.5629 19.8687C63.4841 19.9478 63.5348 20.0253 63.6504 20.0031C64.0668 20.2597 63.3506 20.1879 63.2538 20.0976C63.1482 20.1181 63.1524 20.2366 63.2641 20.3839L63.3673 20.5199L63.4682 20.4254C63.6024 20.3 63.6709 20.2813 63.7486 20.3492C63.8261 20.417 63.7987 20.5138 63.5358 20.6745C63.4962 20.6678 63.3909 20.7011 63.3015 20.7487L63.1393 20.8354L63.0333 20.7516C62.8957 20.6427 62.8744 20.6454 62.8045 20.7812C62.7288 20.9285 62.7302 20.9371 62.8377 21.0163C62.7683 21.086 62.7464 21.0896 62.6526 21.0466C62.5609 21.0045 62.5398 21.007 62.498 21.0645C62.1299 21.201 62.1299 21.0594 62.0187 21.0993C61.9872 21.0945 61.932 21.1423 61.8962 21.2059C61.8412 21.3038 61.8176 21.3164 61.5289 21.2162C61.5017 21.2056 61.4163 21.2073 61.3392 21.2199C61.2368 21.2367 61.1797 21.2251 61.1267 21.1769C61.0581 21.1145 61.051 21.1153 60.9896 21.1914C60.9283 21.2674 60.8191 21.2876 60.7356 21.2385C60.702 21.2188 60.4207 21.2241 60.3725 21.2456C60.3227 21.2676 60.23 21.2631 60.1459 21.2347C60.0948 21.2176 60.0258 21.215 59.9927 21.2292C59.9595 21.2434 59.8978 21.2582 59.8558 21.2622C59.8136 21.2662 59.7232 21.2827 59.6547 21.2988C59.5455 21.242 59.3511 21.276 59.3505 21.3052C59.3202 21.2936 59.1819 21.3125 59.0434 21.3476C58.8296 21.4017 58.7412 21.4048 58.4621 21.3682C58.2425 21.3395 58.0437 21.337 57.8649 21.3609C57.7176 21.3804 57.464 21.3971 57.3016 21.3977C57.0493 21.3988 57.0005 21.4098 56.9418 21.632C56.869 21.6591 53.4833 21.665 52.9078 21.639ZM61.6378 20.8891C61.798 20.7552 61.8259 20.6795 61.7286 20.6421C61.6954 20.6292 61.6529 20.5778 61.6339 20.5278C61.5875 20.4049 61.5252 20.4131 61.4784 20.5483C61.4572 20.6098 61.4062 20.6687 61.3655 20.6795C61.2732 20.7037 61.2674 20.8467 61.3547 20.9437C61.4402 21.0386 61.464 21.034 61.6378 20.8891ZM61.0458 20.8062C61.0536 20.7325 61.0277 20.6685 60.9638 20.6043C60.9123 20.5526 60.8702 20.4879 60.7812 20.4475C60.796 20.4715 60.8037 20.5639 60.7982 20.6525C60.7902 20.7834 60.8049 20.8251 60.8765 20.8756C60.9906 20.9559 61.0317 20.9391 61.0458 20.8062ZM63.3185 18.4565C63.3693 18.4022 63.397 18.337 63.3838 18.3026C63.3514 18.2173 63.1546 18.2277 63.0723 18.319C63.0061 18.3926 63.0068 18.3978 63.0951 18.4718C63.2113 18.569 63.2136 18.5689 63.3185 18.4565ZM52.7157 18.3796C52.7157 18.3488 52.776 18.2776 52.8497 18.221C53.0009 18.105 53.0143 18.0517 52.9142 17.9607C52.8301 17.8842 52.754 17.9397 52.754 18.0774C52.754 18.1304 52.731 18.1659 52.6966 18.1659C52.6289 18.1659 52.6174 17.9706 52.6786 17.8558C52.7235 17.7712 52.6367 17.5615 52.5414 17.5247C52.4649 17.4953 52.4721 17.4084 52.5613 17.2824C52.6278 17.1887 52.6301 17.1677 52.5816 17.1033C52.5498 16.9248 52.4122 16.8638 52.4342 16.9434C52.4926 17.0385 52.4721 17.298 52.3998 17.3815C52.3219 17.4711 52.3375 17.628 52.5408 17.9328C52.5883 17.9724 52.5883 17.9992 52.5411 18.1341C52.4811 18.3048 52.4963 18.3659 52.5941 18.3497C52.6295 18.3439 52.6539 18.3607 52.6487 18.3872C52.6434 18.4137 52.6564 18.4354 52.6775 18.4354C52.6984 18.4354 52.7157 18.4101 52.7157 18.3796ZM52.0266 17.24C52.0266 17.2214 52.0024 17.2154 51.9731 17.2267C51.9436 17.2381 51.9084 17.2292 51.8946 17.207C51.8599 17.1506 51.9411 17.0113 52.0087 17.0113C52.1661 17.0628 52.0089 16.7727 51.95 16.7416C51.95 16.6953 51.9255 16.6115 51.8955 16.5552C51.8656 16.4991 51.8318 16.4228 51.8203 16.3858C51.7865 16.277 51.7307 16.3081 51.7042 16.4503C51.6784 16.5887 51.5522 16.7777 51.5123 16.7378C51.4994 16.725 51.4815 16.5876 51.4724 16.4327C51.4594 16.2123 51.4383 16.1334 51.2306 16.0751C51.1946 16.1213 51.1134 16.1648 51.0503 16.1715C50.9551 16.1816 50.9362 16.2001 50.94 16.2799C50.9444 16.377 50.8883 16.4448 50.832 16.4098C50.8414 16.3497 50.6904 16.1352 50.7692 16.0875C50.8502 15.9774 50.8351 15.8739 50.5491 15.8595C50.5197 15.884 50.4492 15.891 50.3819 15.876C50.2094 15.8311 50.0183 15.8311 50.0755 15.6885C50.0013 15.614 49.9537 15.7174 49.9877 15.8792C50.0051 15.962 50.0102 16.088 49.9036 16.2051C49.8395 16.1337 49.8358 16.1102 49.8779 16.0423C50.0273 15.756 49.6462 16.095 49.7389 16.0702C49.6382 16.1449 49.6668 16.366 49.8052 16.5806C49.876 16.6904 49.9452 16.7803 49.9591 16.7803C49.9959 16.7803 50.1357 16.6171 50.1611 16.5445C50.1932 16.4523 50.3855 16.4379 50.5167 16.518C50.5786 16.5558 50.6698 16.6045 50.7193 16.6263C50.8342 16.9938 51.4543 17.0948 51.3109 17.3191C51.3434 17.3191 51.404 17.2758 51.4455 17.2229C51.5178 17.1304 51.6025 17.0954 51.6082 17.1555C51.6229 17.3176 51.6464 17.4107 51.6842 17.4564C51.7221 17.5023 51.7527 17.4922 51.878 17.3925C51.9596 17.3274 52.0266 17.2589 52.0266 17.24ZM49.3441 16.8862C49.3262 16.7378 49.4965 16.5658 49.5595 16.6684C49.3614 16.6736 49.3614 16.3229 49.2547 16.3599C49.1981 16.3128 49.1744 16.322 49.0571 16.4364C48.9837 16.5078 48.9283 16.5945 49.1833 16.8365C49.2354 16.9363 49.3548 16.9732 49.3441 16.8862Z" fill="#5296C5" stroke="#5296C5" stroke-width="0.361786"/>
<path d="M52.6492 18.3872C52.6544 18.3607 52.6299 18.3439 52.5946 18.3497C52.4967 18.3659 52.4815 18.3048 52.5415 18.1341C52.5887 17.9992 52.5887 17.9724 52.4328 17.7071C52.3379 17.628 52.3223 17.4711 52.4002 17.3815C52.4725 17.298 52.493 17.0385 52.4346 16.9433C52.4193 16.7774 52.5869 17.0576 52.582 17.1033C52.6305 17.1677 52.6282 17.1887 52.5617 17.2824C52.4725 17.4084 52.4653 17.4953 52.5418 17.5247C52.6371 17.5615 52.7239 17.7712 52.679 17.8558C52.6178 17.9706 52.6293 18.1659 52.697 18.1659C52.7314 18.1659 52.7544 18.1304 52.7544 18.0774C52.7544 17.9397 52.8305 17.8842 52.9147 17.9607C53.0147 18.0517 53.0014 18.105 52.8501 18.221C52.7764 18.2775 52.7161 18.3488 52.7161 18.3796C52.7161 18.4101 52.6989 18.4354 52.6779 18.4354C52.6568 18.4354 52.6438 18.4137 52.6492 18.3872Z" fill="#5296C5" stroke="#5296C5" stroke-width="0.361786"/>
<path d="M49.1837 16.8365L49.1328 16.7386C49.0057 17.0009 48.822 16.753 48.9346 16.6289C48.9288 16.5945 48.9841 16.5078 49.0575 16.4364C49.1748 16.322 49.1985 16.3128 49.2551 16.3599C49.4945 16.3781 49.6344 16.6687 49.5599 16.6684C49.4969 16.5658 49.3267 16.7378 49.3446 16.8862C49.3553 16.9732 49.2359 16.9363 49.1837 16.8365Z" fill="#5296C5" stroke="#5296C5" stroke-width="0.361786"/>
<path d="M63.096 18.4718C63.0078 18.3977 63.007 18.3925 63.0732 18.319C63.1555 18.2277 63.3523 18.2173 63.3848 18.3026C63.4054 18.3563 63.2658 18.5528 63.2093 18.5495C63.1973 18.5488 63.1462 18.5138 63.096 18.4718Z" fill="#5296C5" stroke="#5296C5" stroke-width="0.361786"/>
<path d="M51.6844 17.4564C51.6466 17.4107 51.623 17.3176 51.6084 17.1555C51.6027 17.0954 51.518 17.1304 51.4456 17.2229C51.4042 17.2758 51.3436 17.3191 51.3111 17.3191C51.4747 17.1085 50.761 16.8617 50.7195 16.6263C50.67 16.6044 50.5788 16.5558 50.5169 16.518C50.3857 16.4379 50.1934 16.4523 50.1613 16.5445C50.1359 16.6171 49.9961 16.7803 49.9593 16.7803C49.9454 16.7803 49.8762 16.6904 49.8054 16.5806C49.667 16.366 49.6384 16.1449 49.739 16.0702C49.6834 15.9848 50.0048 15.8824 49.8781 16.0423C49.836 16.1102 49.8397 16.1337 49.999 16.1592C50.0104 16.088 50.0053 15.962 49.9879 15.8792C49.9539 15.7174 50.0015 15.614 50.0757 15.6885C49.9608 16.0346 50.3379 15.936 50.3821 15.876C50.4494 15.891 50.5199 15.884 50.7432 15.9094C50.8353 15.8739 50.8504 15.9774 50.7694 16.0875C50.6606 16.2117 50.8749 16.3854 50.8322 16.4098C50.8885 16.4448 50.9446 16.377 50.9402 16.2799C50.9364 16.2001 50.9553 16.1816 51.0505 16.1715C51.1136 16.1648 51.1948 16.1213 51.3761 16.071C51.4385 16.1334 51.4596 16.2123 51.4726 16.4327C51.4817 16.5876 51.4996 16.725 51.5125 16.7378C51.5524 16.7777 51.6786 16.5887 51.7044 16.4503C51.7309 16.3081 51.7867 16.277 51.8205 16.3857C51.832 16.4228 51.8658 16.4991 51.8957 16.5552C51.9257 16.6115 51.9502 16.6953 51.9502 16.7416C52.1129 16.8713 52.0753 17.0331 52.0089 17.0112C51.9413 17.0112 51.8601 17.1506 51.8948 17.207C51.9086 17.2292 51.9438 17.238 51.9733 17.2267C52.0762 17.1871 52.0256 17.2751 51.8781 17.3925C51.7529 17.4922 51.7223 17.5023 51.6844 17.4564Z" fill="#5296C5" stroke="#5296C5" stroke-width="0.361786"/>
<path d="M61.3546 20.9437C61.2673 20.8467 61.2731 20.7037 61.3654 20.6795C61.4061 20.6687 61.457 20.6098 61.4783 20.5483C61.5251 20.4131 61.5873 20.4049 61.6338 20.5278C61.6528 20.5778 61.6953 20.6292 61.7285 20.6421C61.8258 20.6795 61.7979 20.7552 61.6377 20.8891C61.4639 21.034 61.4401 21.0386 61.3546 20.9437Z" fill="#5296C5" stroke="#5296C5" stroke-width="0.361786"/>
<path d="M60.8766 20.8756C60.8051 20.8251 60.7904 20.7834 60.7983 20.6525C60.8038 20.5639 60.7962 20.4715 60.8704 20.4607C60.8704 20.4879 60.9124 20.5526 60.964 20.6043C61.0279 20.6685 61.0537 20.7324 61.0459 20.8062C61.0319 20.9391 60.9907 20.9559 60.8766 20.8756Z" fill="#5296C5" stroke="#5296C5" stroke-width="0.361786"/>
<path d="M18.079 0.0907262C18.0913 0.0783385 20.6739 0.0662568 23.8179 0.0639628C26.9621 0.0615159 28.8799 0.049893 28.0797 0.0381171C26.6642 0.0171651 26.6811 0.0165529 28.7113 0.0154824C29.859 0.0147177 30.6638 0.0202232 30.4999 0.0274111C30.3219 0.0352108 30.2112 0.0553986 30.2248 0.0775741C30.2393 0.101279 28.0485 0.114431 24.1521 0.113972C20.7994 0.113666 18.0666 0.103114 18.079 0.0907262Z" fill="#5296C5" stroke="#5296C5" stroke-width="0.361786"/>
<path d="M52.6115 6.80181C52.6956 6.42773 53.2767 5.04444 53.5849 4.4844C54.3006 3.18384 55.442 1.97444 56.6356 1.25197C57.1593 0.935093 57.9795 0.511923 58.2332 0.427809C58.6135 0.301638 59.2777 0.153904 59.3001 0.190302C59.3112 0.208501 59.4489 0.207736 59.6071 0.18862C60.5651 0.073154 62.807 0.0499084 64.3637 0.139069C64.7653 0.162162 64.7753 0.160633 64.7753 0.0806482C64.7753 0.00448687 64.7935 -0.000713079 65.0337 0.00555723C65.2198 0.0102982 65.2466 0.0162626 65.1295 0.026968C65.0296 0.0359911 64.9667 0.0609196 64.9667 0.0913536C64.9667 0.131575 65.9677 0.145798 70.2213 0.166138C73.1113 0.179902 75.8488 0.202384 76.3048 0.215995C77.1253 0.240617 77.1345 0.241841 77.1824 0.331614C77.2246 0.410986 77.2198 0.43408 77.1438 0.515441C77.0961 0.566521 76.9811 0.630906 76.8884 0.658435C76.7958 0.685963 76.7199 0.730619 76.7199 0.757689C76.7199 0.784911 76.7069 0.807087 76.691 0.807087C76.6471 0.807087 76.5578 1.03083 76.5844 1.07396C76.6107 1.11693 76.5362 1.26513 76.4556 1.32966C76.4116 1.36499 76.4284 1.39696 76.55 1.50906C76.6795 1.62835 76.6915 1.65327 76.6457 1.70864C76.6032 1.76017 76.6024 1.78877 76.6416 1.86203C76.6815 1.93712 76.6792 1.96832 76.6277 2.04738C76.5694 2.1367 76.5706 2.14863 76.6465 2.24574C76.7097 2.32649 76.7176 2.36075 76.6827 2.40296C76.6483 2.44486 76.6535 2.4805 76.7064 2.56155C76.7883 2.68726 76.799 3.03993 76.7236 3.13123C76.6809 3.18292 76.6827 3.21412 76.7346 3.32408C76.7687 3.39627 76.7965 3.47335 76.7965 3.49537C76.7965 3.51754 76.8439 3.55853 76.9017 3.58652C76.9623 3.61588 77.008 3.66987 77.0093 3.71376C77.0103 3.75566 77.0311 3.82647 77.0554 3.87098C77.1152 3.98094 77.1013 4.41741 77.2405 4.57906C77.2469 4.68 77.3006 4.77145 77.3535 4.77145C77.4365 4.77145 77.4598 4.8493 77.4067 4.94916C77.3685 5.02089 77.3674 5.05301 77.4021 5.08788C77.486 5.17214 77.4514 5.29816 77.3159 5.402C77.2435 5.45737 77.1772 5.50279 77.1681 5.50279C77.1591 5.50279 77.0879 5.56335 77.0097 5.63752C76.9316 5.71154 76.8444 5.77226 76.8159 5.77226C76.7873 5.77226 76.7155 5.81309 76.6558 5.86295C76.5119 5.98377 76.3473 6.06528 76.184 6.09663C76.1103 6.1107 75.9724 6.15475 75.8777 6.19451C75.7829 6.23412 75.6004 6.28703 75.4721 6.31212C75.26 6.35341 75.2404 6.36534 75.2556 6.44486C75.2696 6.51904 75.253 6.53509 75.1445 6.55115C75.0671 6.56247 74.9827 6.54764 74.9306 6.51323C74.8281 6.44578 74.7206 6.47468 74.7535 6.56094C74.7727 6.61141 74.7522 6.61783 74.6284 6.59994C73.9663 6.50374 73.9495 6.50328 73.866 6.5822C73.8131 6.63221 73.7325 6.65744 73.626 6.65744C73.5171 6.65744 73.4658 6.67411 73.4658 6.70944C73.4658 6.7518 73.1516 6.76633 71.7526 6.7882C67.5492 6.85427 63.0931 6.88654 58.0423 6.88746L52.592 6.88837L52.6115 6.80181Z" fill="#8B8A89" stroke="#8B8A89" stroke-width="0.361786"/>
<path d="M67.1492 6.8489C72.2193 6.79492 73.466 6.76754 73.466 6.71004C73.466 6.67394 73.5163 6.65743 73.6263 6.65743C73.7327 6.65743 73.8133 6.63219 73.8662 6.58218C73.9497 6.50327 73.9665 6.50373 74.6286 6.59992C74.7525 6.61782 74.773 6.61139 74.7537 6.56093C74.7208 6.47467 74.8283 6.44577 74.9308 6.51321C74.9829 6.54762 75.0674 6.56246 75.1447 6.55114C75.2532 6.53508 75.2698 6.51902 75.2558 6.44485C75.2406 6.36532 75.2602 6.35339 75.4723 6.3121C75.6006 6.28702 75.7831 6.2341 75.8779 6.19449C75.9726 6.15473 76.1105 6.11069 76.1842 6.09662C76.3476 6.06527 76.5121 5.98375 76.656 5.86293C76.7157 5.81308 76.7876 5.77224 76.8162 5.77224C76.8446 5.77224 76.9318 5.71153 77.0099 5.63751C77.0881 5.56333 77.1593 5.50277 77.1684 5.50277C77.1774 5.50277 77.2438 5.45735 77.3161 5.40199C77.4516 5.29815 77.4862 5.17213 77.4024 5.08786C77.3676 5.05299 77.3687 5.02087 77.4069 4.94915C77.46 4.84928 77.4368 4.77144 77.3537 4.77144C77.3008 4.77144 77.2471 4.67999 77.0375 4.44217C77.1015 4.4174 77.1155 3.98092 77.0557 3.87096C77.0313 3.82646 77.0105 3.75565 77.0095 3.71374C77.0082 3.66985 76.9625 3.61587 76.902 3.5865C76.8441 3.55852 76.7967 3.51753 76.7967 3.49535C76.7967 3.47333 76.7689 3.39625 76.7348 3.32407C76.683 3.21411 76.6811 3.18291 76.7238 3.13122C76.7992 3.03991 76.7885 2.68725 76.7067 2.56154C76.6537 2.48048 76.6485 2.44485 76.683 2.40294C76.7178 2.36073 76.7099 2.32648 76.6467 2.24573C76.5709 2.14861 76.5696 2.13668 76.6279 2.04737C76.6794 1.9683 76.6817 1.9371 76.6418 1.86201C76.6027 1.78876 76.6034 1.76016 76.6459 1.70862C76.6917 1.65326 76.6797 1.62833 76.5502 1.50904C76.4286 1.39694 76.4118 1.36498 76.4558 1.32965C76.5364 1.26511 76.6109 1.11692 76.5846 1.07394C76.558 1.03082 76.6473 0.807072 76.6912 0.807072C76.7071 0.807072 76.7201 0.784896 76.7201 0.757674C76.7201 0.730605 76.796 0.685948 76.8887 0.65842C76.9813 0.630892 77.0963 0.566506 77.1441 0.515426C77.2219 0.432077 77.2256 0.412348 77.1797 0.326093C77.1297 0.232345 77.1164 0.229592 76.6849 0.224239C76.4412 0.22118 75.5093 0.207263 74.6145 0.193193C73.7197 0.179123 77.7628 0.164288 83.5994 0.160159C89.4362 0.15603 94.2206 0.1675 94.2316 0.185546C94.2594 0.230662 94.0975 0.82466 93.9332 1.27979C93.7985 1.65311 93.7705 1.72315 93.6064 2.09784C93.5597 2.20443 93.527 2.30874 93.5337 2.32953C93.5548 2.39468 93.4054 2.68801 93.3597 2.67088C93.299 2.64825 92.8191 3.42149 92.8188 3.5423C92.8186 3.64967 92.6707 3.8442 92.1569 4.41296C91.1986 5.47371 89.8167 6.34315 88.5883 6.65804C87.7179 6.88102 88.7259 6.86389 76.165 6.87001C69.8271 6.87291 65.7699 6.86343 67.1492 6.8489Z" fill="#8B8A89" stroke="#8B8A89" stroke-width="0.361786"/>
<path d="M92.8248 3.52242C92.8109 3.48617 92.9011 3.308 93.0549 3.0682C93.3538 2.60237 93.3287 2.63494 93.3631 2.6695C93.3945 2.70101 93.2464 2.98057 93.0083 3.33966C92.8934 3.51278 92.841 3.56509 92.8248 3.52242Z" fill="#8B8A89" stroke="#8B8A89" stroke-width="0.361786"/>
<path d="M52.5081 6.8931C52.4814 6.84966 52.6745 6.18577 52.795 5.90697C52.8134 5.86461 52.8788 5.70005 52.9405 5.54131C53.2254 4.80829 53.6657 3.99147 54.0679 3.44978C54.7407 2.54379 55.2741 2.02672 56.1425 1.4393C56.666 1.08511 57.0668 0.859221 57.5112 0.668053C57.994 0.460215 57.9472 0.536835 57.4227 0.812423C56.3639 1.3691 55.6964 1.85284 55.0346 2.54288C54.1971 3.41613 53.6447 4.24335 53.1725 5.33102C52.9414 5.86308 52.6386 6.66691 52.6111 6.82106C52.5924 6.92628 52.5477 6.95763 52.5081 6.8931Z" fill="#8B8A89" stroke="#8B8A89" stroke-width="0.361786"/>
<path d="M93.5279 2.30919C93.5279 2.28854 93.5611 2.1977 93.6015 2.10716C93.7527 1.76902 93.8017 1.64713 93.9343 1.27978C94.0985 0.824651 94.2605 0.230653 94.2326 0.185538C94.2216 0.167492 87.6326 0.152657 79.5902 0.152657C67.3001 0.152657 64.968 0.144398 64.968 0.100506C64.968 0.0648725 65.0426 0.0402504 65.2032 0.0234276C65.3328 0.00981646 67.6542 0.00262853 70.362 0.00752243C73.07 0.0122634 74.8118 0.0255687 74.2328 0.0371918C73.6065 0.0497324 74.4674 0.0613549 76.3575 0.0656371C78.1052 0.0697663 82.7781 0.0821546 86.7419 0.0933188C92.4635 0.109224 93.947 0.103565 93.9395 0.0657905C93.9285 0.0105812 94.2848 -0.0255114 94.3357 0.0255687C94.3813 0.071449 94.165 0.859673 93.9416 1.46132C93.6997 2.11328 93.5279 2.46503 93.5279 2.30919Z" fill="#8B8A89" stroke="#8B8A89" stroke-width="0.361786"/>
<path d="M59.3009 0.199771C59.3009 0.0679416 60.4793 0.00248553 62.89 0.000344449C64.7689 -0.0011849 64.7755 -0.00103205 64.7755 0.0780351C64.7755 0.155573 64.7636 0.156797 64.23 0.131563C62.7468 0.0615185 59.7322 0.112599 59.387 0.213535C59.3381 0.227758 59.3009 0.221947 59.3009 0.199771Z" fill="#8B8A89" stroke="#8B8A89" stroke-width="0.361786"/>
</svg>
