<svg width="14" height="20" viewBox="0 0 14 20" fill="none" xmlns="http://www.w3.org/2000/svg">
<path d="M13.1274 13.1245C13.9087 13.9057 13.9087 14.765 13.1274 15.7025C12.815 16.0671 12.509 16.3405 12.2095 16.5228C11.91 16.7051 11.6627 16.8092 11.4673 16.8353C11.272 16.8613 10.9921 16.8743 10.6275 16.8743C9.61194 16.8743 8.40104 16.3535 6.99484 15.3119C5.87508 14.5046 4.85949 13.6322 3.94807 12.6948C2.77623 11.4709 1.74762 10.0777 0.862233 8.51523C0.0810092 7.05695 -0.153358 5.85907 0.159132 4.9216C0.315376 4.42683 0.679947 3.99716 1.25284 3.63258L1.29191 3.59352C1.76064 3.28103 2.17729 3.12479 2.54186 3.12479C3.03664 3.12479 3.47933 3.35916 3.86994 3.82789L3.90901 3.86695C4.50794 4.64818 4.9246 5.26013 5.15896 5.70283C5.54958 6.51009 5.53655 7.20017 5.1199 7.77307C4.80741 8.18972 4.65117 8.48919 4.65117 8.67148C4.65117 8.7496 4.82043 8.98397 5.15896 9.37458L5.19802 9.41364C5.823 10.1167 6.16153 10.4943 6.21362 10.5464C6.23966 10.5464 6.2657 10.5594 6.29174 10.5855C6.31778 10.6115 6.34382 10.6376 6.36986 10.6636L6.44798 10.7417C6.9688 11.2625 7.34639 11.6271 7.58076 11.8354L7.61982 11.8745C7.85419 12.0828 8.01043 12.187 8.08855 12.187C8.21876 12.187 8.59635 11.9917 9.22133 11.6011C9.40361 11.4709 9.62496 11.4058 9.88537 11.4058C10.3541 11.4058 10.9205 11.6011 11.5845 11.9917C12.2486 12.3823 12.7629 12.7599 13.1274 13.1245Z" fill="#E1E1E1"/>
</svg>
