<svg width="62" height="62" viewBox="0 0 62 62" fill="none" xmlns="http://www.w3.org/2000/svg">
<path d="M47.2048 13.8415H46.2512V10.0285C46.2441 9.21301 45.8931 8.43769 45.2853 7.89374C44.6774 7.34976 43.8686 7.08629 43.0569 7.16906C43.5422 6.13693 43.4684 4.92883 42.8606 3.96432C42.2532 2.99935 41.1956 2.41044 40.0551 2.40281L21.9431 2.40234C20.8026 2.41039 19.745 2.9993 19.1376 3.96385C18.5298 4.92882 18.456 6.13687 18.9413 7.16908C18.1296 7.0863 17.3207 7.34977 16.7129 7.89375C16.1051 8.43773 15.7546 9.21307 15.747 10.0285V13.8415H14.7939C14.0356 13.8425 13.3085 14.1442 12.7727 14.6802C12.2363 15.2161 11.935 15.9432 11.934 16.7014V22.4206C11.935 23.1789 12.2363 23.906 12.7727 24.4423C13.3086 24.9782 14.0357 25.2795 14.7939 25.2805H15.747V29.0935C15.7489 29.716 15.9566 30.321 16.3369 30.8139C15.3691 31.5276 14.7967 32.6573 14.7939 33.8596V44.3456C14.7948 45.3565 15.1969 46.3257 15.9116 47.0409C16.6264 47.7556 17.5956 48.1577 18.607 48.1587H23.3736L18.2261 55.0222C17.624 55.8401 17.501 56.9158 17.9026 57.8481C18.3042 58.7809 19.1703 59.4303 20.1778 59.5553C21.1853 59.6801 22.1833 59.261 22.8002 58.4546L27.7026 51.9278C27.8468 51.9539 27.9925 51.9685 28.1392 51.9718V56.738C28.1392 57.7597 28.6841 58.7038 29.5692 59.2147C30.4537 59.7256 31.5441 59.7256 32.4285 59.2147C33.3136 58.7038 33.8585 57.7596 33.8585 56.738V51.9718C34.0052 51.9685 34.1513 51.9534 34.2956 51.9274L39.2014 58.458V58.4584C39.8026 59.2399 40.7619 59.659 41.7434 59.5696C42.7254 59.4802 43.5933 58.895 44.0437 58.0181C44.283 57.5432 44.3842 57.011 44.336 56.4813C44.2882 55.952 44.0929 55.4463 43.7722 55.0225L38.6247 48.1589H43.3913C44.4022 48.158 45.3714 47.7559 46.0861 47.0411C46.8013 46.3259 47.2034 45.3567 47.2044 44.3458V33.8598C47.2011 32.6574 46.6287 31.5278 45.6609 30.8141C46.0412 30.3212 46.2489 29.7162 46.2508 29.0937V25.2807H47.2044C47.9626 25.2798 48.6892 24.9785 49.2256 24.4425C49.7615 23.9061 50.0633 23.179 50.0638 22.4209V16.7016C50.0633 15.9433 49.7615 15.2163 49.2256 14.6804C48.6892 14.1445 47.9625 13.8427 47.2044 13.8418L47.2048 13.8415ZM23.3735 30.0463V25.2556C25.179 27.6481 28.0026 29.0544 30.9997 29.0544C33.9967 29.0544 36.8202 27.6481 38.6258 25.2556V30.0463H23.3735ZM30.9997 27.1864V27.1869C28.9775 27.1845 27.039 26.3804 25.6095 24.9504C24.18 23.5209 23.376 21.5825 23.3735 19.5607C23.7926 9.44373 38.2075 9.44663 38.6253 19.5607C38.6229 21.5824 37.8183 23.5209 36.3888 24.9504C34.9593 26.3804 33.021 27.1844 30.9992 27.1869L30.9997 27.1864ZM30.9997 10.0274C27.9941 10.0307 25.1668 11.453 23.3735 13.865V9.07428H38.6253V13.865C36.832 11.453 34.0044 10.0307 30.9992 10.0274H30.9997ZM20.5137 5.73803C20.5146 4.94856 21.1541 4.309 21.9437 4.30803H40.0557H40.0552C40.8451 4.30803 41.4852 4.94804 41.4852 5.73803C41.4852 6.5275 40.8452 7.16802 40.0552 7.16802H21.9432H21.9437C21.1542 7.16708 20.5146 6.52755 20.5137 5.73803ZM14.7944 23.3729C14.2679 23.3724 13.8413 22.9458 13.8408 22.4193V16.7C13.8413 16.1736 14.2679 15.7474 14.7944 15.7469H15.7476V23.373L14.7944 23.3729ZM17.6543 29.0922L17.6538 10.0272C17.6543 9.50116 18.0809 9.0745 18.6074 9.07403H21.4673L21.4668 30.045H18.6074C18.081 30.045 17.6543 29.6184 17.6538 29.0919L17.6543 29.0922ZM34.8133 48.1572V49.1103C34.8128 49.6368 34.3861 50.0634 33.8597 50.0634H28.1404C27.6139 50.0634 27.1873 49.6368 27.1873 49.1103V48.1572H34.8133ZM21.281 57.3045C20.5138 58.2552 19.0006 57.164 19.7527 56.164L25.2809 48.7924C25.2147 49.598 25.4791 50.396 26.0131 51.0024L21.281 57.3045ZM31.9539 56.7364C31.9463 57.2576 31.522 57.6763 31.0007 57.6763C30.4795 57.6763 30.0547 57.2576 30.0471 56.7364V51.9702H31.9534L31.9539 56.7364ZM42.3401 57.1635C42.1802 57.4454 41.8921 57.6304 41.57 57.6592C41.2474 57.6881 40.9314 57.5566 40.7238 57.3078L35.9879 51.0024H35.9884C36.5224 50.396 36.7864 49.598 36.7202 48.7925L42.2488 56.1636V56.164C42.4697 56.4516 42.5052 56.8409 42.3401 57.1635ZM45.2994 44.3445C45.2989 44.8497 45.0979 45.3346 44.7403 45.6917C44.3831 46.0493 43.8983 46.2503 43.3931 46.2508H18.6088C18.1032 46.2503 17.6188 46.0493 17.2612 45.6917C16.9041 45.3346 16.7025 44.8497 16.7021 44.3445V33.8585C16.7025 33.3533 16.9041 32.8685 17.2612 32.5114C17.6188 32.1538 18.1032 31.9527 18.6088 31.9522H43.3931C43.8983 31.9527 44.3831 32.1538 44.7403 32.5114C45.0979 32.8685 45.2989 33.3533 45.2994 33.8585V44.3445ZM40.5333 30.0458V9.07475H43.3931C43.9191 9.07523 44.3458 9.50189 44.3463 10.0279V29.0929C44.3458 29.6194 43.9191 30.046 43.3931 30.046L40.5333 30.0458ZM48.1594 22.4196C48.1589 22.9461 47.7322 23.3728 47.2062 23.3733H46.2526V15.7471H47.2062C47.7322 15.7476 48.1589 16.1738 48.1594 16.7003V22.4196Z" fill="#1F1F1F"/>
<path d="M42.4386 33.8594H19.5603C19.3073 33.8594 19.0646 33.9597 18.8858 34.1385C18.707 34.3173 18.6067 34.5599 18.6072 34.813V43.3922C18.6067 43.6448 18.707 43.8875 18.8858 44.0663C19.0646 44.2451 19.3073 44.3454 19.5603 44.3454H42.4386C42.6916 44.3454 42.9343 44.2451 43.1131 44.0663C43.2919 43.8875 43.3922 43.6448 43.3922 43.3922V34.813C43.3922 34.5599 43.2919 34.3173 43.1131 34.1385C42.9343 33.9597 42.6916 33.8594 42.4386 33.8594ZM41.4854 42.4386H20.5144V35.7661H41.4854V42.4386Z" fill="#1F1F1F"/>
<path d="M30.0458 41.4865C30.2989 41.487 30.5415 41.3862 30.7199 41.2074L33.5797 38.3476C33.9463 37.9743 33.9435 37.3755 33.5736 37.0056C33.2037 36.6357 32.6048 36.6333 32.2316 36.9999L29.3718 39.8598L29.3722 39.8593C29.1059 40.1341 29.0283 40.5409 29.1745 40.8943C29.3211 41.2476 29.6636 41.4804 30.0458 41.4865Z" fill="#1F1F1F"/>
<path d="M34.1388 41.2073C34.3176 41.3862 34.5598 41.4864 34.8128 41.4864C35.0654 41.4864 35.3081 41.3862 35.4864 41.2073L38.3463 38.3475C38.7148 37.9747 38.7129 37.3745 38.342 37.0036C37.9717 36.6332 37.3714 36.6313 36.9986 36.9998L34.1387 39.8597V39.8592C33.9599 40.038 33.8592 40.2807 33.8592 40.5332C33.8592 40.7858 33.96 41.0285 34.1388 41.2073Z" fill="#1F1F1F"/>
<path d="M24.3265 41.4865C24.5796 41.487 24.8218 41.3862 25.0006 41.2074L27.8605 38.3476H27.86C28.2266 37.9743 28.2237 37.3755 27.8543 37.0056C27.4844 36.6357 26.8856 36.6333 26.5124 36.9999L23.6525 39.8598V39.8593C23.3862 40.1341 23.3086 40.5409 23.4552 40.8943C23.6014 41.2476 23.9439 41.4804 24.3265 41.4865Z" fill="#1F1F1F"/>
<path d="M27.5706 14.9851C26.1346 16.0683 25.2869 17.7613 25.2808 19.5607C25.2883 20.0819 25.7126 20.5005 26.2339 20.5005C26.7552 20.5005 27.18 20.0819 27.1875 19.5607C27.1842 18.3587 27.7514 17.2268 28.7158 16.5102C29.1255 16.1904 29.2035 15.6015 28.8913 15.1857C28.5796 14.7703 27.9921 14.681 27.5706 14.9851Z" fill="#1F1F1F"/>
<path d="M27.1868 21.4668C26.6655 21.4748 26.2474 21.8991 26.2474 22.4199C26.2474 22.9412 26.6655 23.3655 27.1868 23.3736C27.7076 23.3655 28.1257 22.9412 28.1257 22.4199C28.1257 21.8991 27.7076 21.4748 27.1868 21.4668Z" fill="#1F1F1F"/>
</svg>
