<svg width="62" height="62" viewBox="0 0 62 62" fill="none" xmlns="http://www.w3.org/2000/svg">
<path d="M43.8662 58.4673H50.0396L40.2707 29.4048H38.6539V27.666H42.9872V7.77394H38.6539V3.53809H23.8865V7.77394H19.5512V27.666H23.8865V29.4048H21.7281L11.9592 58.4673H18.1326L27.2094 31.4598H27.8958V58.4673H33.9547V31.4598H34.7896L43.8662 58.4673ZM38.793 31.4598L47.1815 56.4123H45.3457L36.9572 31.4598H38.793ZM25.9437 5.59171H36.599V21.6294L25.9437 21.6298V5.59171ZM21.6085 25.6097L21.608 9.82757H23.8961V23.6868H38.6634V9.82757H40.9515V25.6097H21.608H21.6085ZM16.6516 56.4111L14.8191 56.4116L23.2076 31.459H25.0434L16.6516 56.4111ZM31.9034 56.4111L29.9507 56.4116V31.459H31.8991L31.9034 56.4111ZM33.9545 29.4036H25.9471V27.6648H36.6024V29.4036H33.9545Z" fill="#1F1F1F"/>
<path d="M31.2701 7.88867C30.3751 7.88867 29.5166 8.24438 28.8837 8.87729C28.2512 9.5102 27.8955 10.3682 27.8955 11.2632C27.8955 12.1582 28.2512 13.0166 28.8837 13.6496C29.5166 14.282 30.3751 14.6377 31.2701 14.6377C32.1651 14.6377 33.0235 14.282 33.656 13.6496C34.2889 13.0167 34.6446 12.1582 34.6446 11.2632C34.6436 10.3687 34.2875 9.51061 33.655 8.87826C33.0226 8.24582 32.1645 7.88962 31.2701 7.88867ZM31.2701 12.5825C30.7365 12.5825 30.2554 12.2613 30.0511 11.768C29.8468 11.2751 29.9598 10.7079 30.3373 10.3305C30.7143 9.95298 31.2819 9.8404 31.7748 10.0443C32.2677 10.2486 32.5894 10.7297 32.5894 11.2632C32.5884 11.9917 31.9981 12.5815 31.2701 12.5825Z" fill="#1F1F1F"/>
<path d="M32.4737 17.8787C32.4737 18.5428 31.9354 19.0816 31.2708 19.0816C30.6062 19.0816 30.0679 18.5428 30.0679 17.8787C30.0679 17.2141 30.6062 16.6758 31.2708 16.6758C31.9354 16.6758 32.4737 17.2141 32.4737 17.8787Z" fill="#1F1F1F"/>
</svg>
