<svg width="62" height="62" viewBox="0 0 62 62" fill="none" xmlns="http://www.w3.org/2000/svg">
<path d="M48.159 4.30762H13.8423C11.3144 4.30762 8.88976 5.31185 7.10169 7.09944C5.31411 8.88751 4.30988 11.3122 4.30988 13.84V48.1568C4.30988 50.6851 5.31411 53.1093 7.10169 54.8973C8.88976 56.6849 11.3144 57.6891 13.8423 57.6891H45.185C45.447 57.6882 45.7057 57.6366 45.9479 57.5368C46.1897 57.4247 46.4091 57.2696 46.596 57.0794L57.177 45.6403C57.3464 45.4591 57.476 45.2449 57.5583 45.0112C57.5692 44.9222 57.5692 44.8328 57.5583 44.7439C57.6217 44.6176 57.6666 44.4828 57.6917 44.3437V13.839C57.6917 11.3112 56.6875 8.88653 54.8999 7.09846C53.1118 5.31087 50.6876 4.30664 48.1593 4.30664L48.159 4.30762ZM47.1297 50.9215V47.2991H47.1292C48.0138 47.615 48.9272 47.8449 49.8558 47.9854L47.1297 50.9215ZM53.8783 43.467C53.3376 43.932 52.6768 44.2357 51.972 44.344C49.9608 44.3005 47.9935 43.7499 46.2523 42.7423C45.9628 42.5753 45.634 42.4869 45.2991 42.4869C44.9647 42.4869 44.6359 42.5753 44.346 42.7423C44.0451 42.9069 43.794 43.1501 43.6199 43.4452C43.4454 43.7404 43.3536 44.0772 43.3545 44.4201V53.9525L13.8416 53.953C12.3246 53.953 10.87 53.3504 9.79727 52.2775C8.72493 51.2047 8.12231 49.7502 8.12231 48.2332V19.5595H53.8788L53.8783 43.467ZM53.8783 15.7463H8.12179V13.8395C8.12179 12.3226 8.72442 10.868 9.79675 9.79523C10.8696 8.72288 12.3241 8.12026 13.841 8.12026H48.1578C49.6747 8.12026 51.1293 8.72289 52.2021 9.79523C53.2744 10.868 53.8771 12.3226 53.8771 13.8395L53.8783 15.7463ZM15.7483 10.0265C15.2426 10.0265 14.7578 10.2276 14.4001 10.5852C14.0425 10.9428 13.8415 11.4276 13.8415 11.9333C13.8415 12.439 14.0425 12.9238 14.4001 13.2814C14.7577 13.639 15.2426 13.8396 15.7483 13.8396C16.254 13.8396 16.7388 13.639 17.0964 13.2814C17.454 12.9238 17.6546 12.439 17.6546 11.9333C17.6546 11.4276 17.454 10.9428 17.0964 10.5852C16.7388 10.2276 16.254 10.0265 15.7483 10.0265ZM46.2518 10.0265C45.7461 10.0265 45.2613 10.2276 44.9037 10.5852C44.5465 10.9428 44.3455 11.4276 44.3455 11.9333C44.3455 12.439 44.5465 12.9238 44.9037 13.2814C45.2613 13.639 45.7461 13.8396 46.2518 13.8396C46.7575 13.8396 47.2428 13.639 47.5999 13.2814C47.9575 12.9238 48.1586 12.439 48.1586 11.9333C48.1586 11.4276 47.9575 10.9428 47.5999 10.5852C47.2428 10.2276 46.7575 10.0265 46.2518 10.0265ZM31 48.1565C36.9483 48.1565 42.4391 46.9933 42.4391 38.6241C42.4391 31.6844 33.3453 22.9522 32.2966 21.9798L32.2961 21.9793C31.9437 21.6525 31.4806 21.4708 31 21.4708C30.519 21.4708 30.0559 21.6525 29.7035 21.9793C28.6548 22.9519 19.5609 31.6839 19.5609 38.6237C19.5609 46.9928 25.0518 48.156 31 48.156L31 48.1565ZM31 26.0605C33.9167 29.0916 38.6261 34.8115 38.6261 38.624C38.6261 43.2184 37.12 44.3433 31 44.3433C24.8801 44.3433 23.3739 43.2184 23.3739 38.624C23.3739 34.811 28.0829 29.0912 31 26.0605Z" fill="black" stroke="black" stroke-width="0.121094"/>
</svg>
